<?xml version="1.0" encoding="UTF-8" standalone="no"?>
<svg
   inkscape:version="1.2-dev (aa02a11, 2021-08-11)"
   sodipodi:docname="bitmap-trace-symbolic.svg"
   viewBox="0 0 16 16"
   height="16"
   width="16"
   id="svg1"
   version="1.1"
   xmlns:inkscape="http://www.inkscape.org/namespaces/inkscape"
   xmlns:sodipodi="http://sodipodi.sourceforge.net/DTD/sodipodi-0.dtd"
   xmlns="http://www.w3.org/2000/svg"
   xmlns:svg="http://www.w3.org/2000/svg"
   xmlns:rdf="http://www.w3.org/1999/02/22-rdf-syntax-ns#"
   xmlns:cc="http://creativecommons.org/ns#"
   xmlns:dc="http://purl.org/dc/elements/1.1/">
  <metadata
     id="metadata3887">
    <rdf:RDF>
      <cc:Work
         rdf:about="">
        <dc:format>image/svg+xml</dc:format>
        <dc:type
           rdf:resource="http://purl.org/dc/dcmitype/StillImage" />
      </cc:Work>
    </rdf:RDF>
  </metadata>
  <defs
     id="defs3885">
    <inkscape:path-effect
       effect="offset"
       id="path-effect29778"
       is_visible="true"
       lpeversion="1"
       linejoin_type="miter"
       unit="mm"
       offset="-0.036488074"
       miter_limit="4"
       attempt_force_join="false"
       update_on_knot_move="true" />
  </defs>
  <style
     id="s0">
.success { fill:#009909; }
.warning { fill:#FF1990; }
.warning { fill:#00AAFF; }
</style>
  <style
     id="s2">
@import '../../highlights.css';
</style>
  <sodipodi:namedview
     inkscape:document-rotation="0"
     inkscape:current-layer="bitmap-trace"
     inkscape:window-maximized="1"
     inkscape:window-y="-6"
     inkscape:window-x="65"
     inkscape:window-height="890"
     inkscape:window-width="1296"
     inkscape:cy="-7.6451368"
     inkscape:cx="-1.5517357"
     inkscape:zoom="13.211013"
     showgrid="false"
     id="namedview"
     guidetolerance="10"
     gridtolerance="10"
     objecttolerance="10"
     pagecolor="#f8f8f8"
     bordercolor="#c8c8c8"
     borderopacity="1"
     inkscape:pageshadow="0"
     inkscape:pageopacity="0"
     inkscape:pagecheckerboard="0"
     showguides="true"
     inkscape:guide-bbox="true"
     inkscape:snap-bbox="true"
     inkscape:bbox-paths="true"
     inkscape:bbox-nodes="true"
     inkscape:snap-bbox-edge-midpoints="false"
     inkscape:snap-bbox-midpoints="true">
    <inkscape:grid
       id="grid"
       type="xygrid" />
  </sodipodi:namedview>
  <g
     id="bitmap-trace"
     inkscape:label="00075"
     transform="translate(-165,-567.4175)">
    <path
       style="color:#000000;fill:#000000;stroke-width:0.999999;-inkscape-stroke:none"
       d="m 170.19476,570.35223 c -0.24503,-0.003 -0.48907,0.0445 -0.71966,0.12586 -0.29828,0.10866 -0.57117,0.28599 -0.79094,0.51515 -0.26578,0.26975 -0.4502,0.61691 -0.5314,0.98634 -0.0425,0.19518 -0.0533,0.39666 -0.0372,0.59557 0.0253,0.30898 0.12835,0.60953 0.28709,0.8751 0.12297,0.20429 0.28543,0.38339 0.46887,0.535 0.25797,0.21082 0.56709,0.35768 0.89306,0.42619 0.20829,0.0452 0.42367,0.0541 0.63564,0.0349 0.25166,-0.0249 0.49875,-0.0964 0.72545,-0.20834 0.22978,-0.11477 0.43965,-0.2702 0.61378,-0.45922 0.35045,-0.37567 0.55312,-0.88854 0.54308,-1.40315 -0.002,-0.39395 -0.13022,-0.78378 -0.35169,-1.10859 -0.11616,-0.1716 -0.25995,-0.32419 -0.42109,-0.45419 -0.33337,-0.26672 -0.74886,-0.43011 -1.17531,-0.45675 -0.0465,-0.003 -0.0931,-0.004 -0.13964,-0.004 z m 0,0.67562 c 0.31303,1.8e-4 0.62654,0.10121 0.87572,0.29183 0.0604,0.0455 0.11565,0.097 0.16736,0.15133 0.0935,0.0983 0.16955,0.21252 0.23063,0.33346 0.14893,0.29966 0.1775,0.65474 0.0855,0.97583 -0.035,0.11802 -0.085,0.23188 -0.14872,0.33722 -0.0643,0.0989 -0.1371,0.19283 -0.22334,0.27371 -0.0563,0.0549 -0.11908,0.10254 -0.18441,0.14608 -0.16081,0.11267 -0.34889,0.18353 -0.54136,0.2189 -0.3393,0.0619 -0.70106,6.9e-4 -0.99788,-0.17615 -0.091,-0.0559 -0.17711,-0.12068 -0.25472,-0.19423 -0.0769,-0.0758 -0.14653,-0.15939 -0.20515,-0.25006 -0.0952,-0.14871 -0.16137,-0.31578 -0.19176,-0.48981 -0.0546,-0.29915 -0.006,-0.61641 0.13733,-0.88467 0.0252,-0.0481 0.057,-0.0931 0.085,-0.13892 0.0709,-0.0935 0.14699,-0.18413 0.23785,-0.2591 0.25519,-0.21986 0.59273,-0.33487 0.92806,-0.33542 z"
       id="path22348"
       sodipodi:nodetypes="ssssssssss" />
    <path
       style="color:#000000;fill:#000000;stroke-width:0.999999;-inkscape-stroke:none"
       d="m 166.11247,568.55183 v 0.36922 13.36212 h 13.73134 v -13.73134 z m 0.73653,0.73652 h 12.25829 v 12.25829 H 166.849 Z"
       id="rect23971" />
    <path
       id="path25894"
       style="color:#000000;fill:#000000;stroke-width:0.999999;-inkscape-stroke:none"
       d="m 176.48276,573.24436 -4.19647,5.14236 -1.58915,-1.94504 -4.35634,5.33457 0.57095,0.46628 3.78539,-4.6342 3.78349,4.6342 0.57095,-0.46628 -2.2895,-2.80526 3.72829,-4.5714 2.83191,3.37241 0.56525,-0.47199 z" />
  </g>
</svg>
