<?xml version="1.0" encoding="UTF-8" standalone="no"?>
<svg
   inkscape:version="1.3-dev (fdfee2c, 2022-07-24)"
   sodipodi:docname="draw-geometry-symbolic.svg"
   viewBox="0 0 16 16"
   height="16"
   width="16"
   id="svg1"
   version="1.1"
   xmlns:inkscape="http://www.inkscape.org/namespaces/inkscape"
   xmlns:sodipodi="http://sodipodi.sourceforge.net/DTD/sodipodi-0.dtd"
   xmlns="http://www.w3.org/2000/svg"
   xmlns:svg="http://www.w3.org/2000/svg"
   xmlns:rdf="http://www.w3.org/1999/02/22-rdf-syntax-ns#"
   xmlns:cc="http://creativecommons.org/ns#"
   xmlns:dc="http://purl.org/dc/elements/1.1/">
  <style
     id="s0">
   .success { fill: #009909; }
   .warning { fill: #FF1990; }
   .warning   { fill: #00AAFF; }
  </style>
  <style
     id="s2"> 
     @import '../../highlights.css'; 
  </style>
  <metadata
     id="metadata978">
    <rdf:RDF>
      <cc:Work
         rdf:about="">
        <dc:format>image/svg+xml</dc:format>
        <dc:type
           rdf:resource="http://purl.org/dc/dcmitype/StillImage" />
      </cc:Work>
    </rdf:RDF>
  </metadata>
  <defs
     id="defs976">
    <inkscape:path-effect
       effect="join_type"
       id="path-effect1086"
       is_visible="true"
       lpeversion="1"
       linecap_type="round"
       line_width="1"
       linejoin_type="extrp_arc"
       miter_limit="100"
       attempt_force_join="true" />
    <inkscape:path-effect
       effect="mirror_symmetry"
       start_point="8.00004,6.333365"
       end_point="8.00004,15.000075"
       center_point="8.00004,10.66672"
       id="path-effect1161"
       is_visible="true"
       lpeversion="1.1"
       mode="free"
       discard_orig_path="false"
       fuse_paths="false"
       oposite_fuse="false"
       split_items="false"
       split_open="false" />
    <inkscape:path-effect
       effect="join_type"
       id="path-effect3137"
       is_visible="true"
       lpeversion="1"
       linecap_type="butt"
       line_width="1.2"
       linejoin_type="extrp_arc"
       miter_limit="100"
       attempt_force_join="true" />
  </defs>
  <sodipodi:namedview
     inkscape:document-rotation="0"
     inkscape:current-layer="svg1"
     inkscape:window-maximized="1"
     inkscape:window-y="-9"
     inkscape:window-x="-9"
     inkscape:window-height="1013"
     inkscape:window-width="1920"
     inkscape:cy="9.4274638"
     inkscape:cx="-4.1434286"
     inkscape:zoom="21.479796"
     showgrid="false"
     id="namedview"
     guidetolerance="10"
     gridtolerance="10"
     objecttolerance="10"
     inkscape:snap-global="false"
     pagecolor="#595959"
     bordercolor="#999999"
     borderopacity="1"
     inkscape:pageshadow="0"
     inkscape:pageopacity="0"
     inkscape:pagecheckerboard="0"
     showguides="true"
     inkscape:guide-bbox="true"
     inkscape:showpageshadow="0"
     inkscape:deskcolor="#595959">
    <inkscape:grid
       id="grid"
       type="xygrid"
       spacingx="0.66667"
       spacingy="0.66667" />
  </sodipodi:namedview>
  <path
     id="path47505"
     style="fill:#000000;fill-rule:evenodd;stroke-width:0.999999"
     d="M 2.1152344,1.6425781 1.9667969,1.7792969 2.5839844,2.4492188 c 0.030862,0.034062 0.028498,0.085793 0,0.1191406 C 2.086023,3.1357005 2.0504053,3.9523709 2.5097656,4.453125 2.7483331,4.7131902 3.0794951,4.8475339 3.4316406,4.8535156 a 0.05459559,0.05459559 0 0 1 0.00195,0 c 0.033549,8.094e-4 0.062671,0.018807 0.078125,0.048828 l 1.5703124,3.1328124 a 0.05459559,0.05459559 0 0 1 0,0.00195 c 0.018211,0.037342 0.00446,0.081402 -0.023437,0.1054687 L 3.78125,9.2988281 4.234375,9.8007812 5.3378906,8.8027344 v 0.00195 c 0.043215,-0.041619 0.115423,-0.029317 0.1425782,0.023437 l 2.5703124,5.125 c 0.1970633,0.128953 0.4380062,0.267742 0.6445313,0.388672 0.0063,-0.251571 0.014551,-0.502569 0.021484,-0.753906 C 7.8095172,11.763847 6.8587891,9.87819 6.0429688,8.2519531 a 0.05459559,0.05459559 0 0 1 0,-0.00195 c -0.019062,-0.039087 -0.00699,-0.081165 0.023437,-0.1074219 L 6.703125,7.5644531 c 0.037054,-0.03324 0.09246,-0.030909 0.1269531,0.00586 a 0.05459559,0.05459559 0 0 1 0.00195,0.00195 L 7.1582031,7.9492188 7.7382812,7.4394531 7.4023438,7.0488281 a 0.05459559,0.05459559 0 0 1 -0.00195,-0.00195 c -0.028747,-0.035813 -0.022631,-0.088868 0.00977,-0.1191406 a 0.05459559,0.05459559 0 0 1 0,-0.00195 l 0.65625,-0.5957031 0.00195,-0.00195 c 0.028275,-0.026051 0.071922,-0.032967 0.1074218,-0.011719 a 0.05459559,0.05459559 0 0 1 0.00195,0 L 13.25,9.4335938 c 0.256336,0.015136 0.51307,0.030243 0.769531,0.044922 L 13.685547,8.8027344 8.8144531,5.8105469 C 8.7655195,5.7798465 8.7573114,5.7056983 8.8027344,5.6660156 L 9.8925781,4.6816406 9.4414062,4.1777344 8.1660156,5.3339844 c -0.028251,0.026002 -0.071915,0.032996 -0.1074218,0.011719 a 0.05459559,0.05459559 0 0 1 -0.00195,0 L 5.0917969,3.5234375 C 5.0612854,3.504419 5.0467839,3.4684408 5.0507812,3.4355469 v -0.00195 C 5.0951744,3.0583154 4.9907186,2.6855165 4.7363281,2.4082031 4.2771786,1.9076786 3.4599151,1.8786566 2.8515625,2.3261719 a 0.05459559,0.05459559 0 0 1 -0.00195,0 C 2.8113215,2.3535283 2.7602585,2.344779 2.7304688,2.3125 Z m 1.5703125,1.0820313 c 0.1806256,-0.00218 0.355985,0.06512 0.484375,0.2050781 0.1735843,0.1892203 0.2089821,0.4565217 0.1191406,0.6914063 -1.934e-4,7.237e-4 2.452e-4,0.00115 0,0.00195 -0.00104,0.00342 -0.00358,0.011109 -0.00391,0.011719 A 0.05459559,0.05459559 0 0 1 4.28125,3.640625 L 4.0898438,3.9140625 a 0.05459559,0.05459559 0 0 1 -0.00391,0.00391 c -4.3e-4,4.925e-4 -0.0093,0.00942 -0.00977,0.00977 l -0.00586,0.00391 c -8.441e-4,5.339e-4 -0.0015,0.0017 -0.00195,0.00195 -0.026717,0.024266 -0.053161,0.047314 -0.083984,0.068359 a 0.05459559,0.05459559 0 0 1 -0.03125,0.00977 h 0.011719 L 3.859375,4.0703125 c 0,0 -0.00195,0.00195 -0.00195,0.00195 -5.814e-4,3.251e-4 -0.00139,-3.084e-4 -0.00195,0 a 0.05459559,0.05459559 0 0 1 -0.00586,0.00195 c -0.0039,0.00137 -0.00951,0.00385 -0.00977,0.00391 C 3.5755634,4.1895894 3.2709875,4.1440127 3.0761719,3.9316406 2.81971,3.6520683 2.8678356,3.2108694 3.1679688,2.9355469 3.3180346,2.7978856 3.5049212,2.7267937 3.6855469,2.7246094 Z m 1.0546875,1.5058594 c 0.020779,-0.00362 0.043826,3.239e-4 0.0625,0.011719 l 2.6191406,1.609375 c 0.048954,0.03071 0.057142,0.1048468 0.011719,0.1445313 L 6.9726562,6.4160156 c -0.035217,0.031593 -0.092351,0.028947 -0.125,-0.00586 a 0.05459559,0.05459559 0 0 1 -0.00195,-0.00195 L 6.515625,6.0292969 5.9335938,6.5410156 6.2695312,6.9277344 c 0.030258,0.035321 0.028466,0.090844 -0.00586,0.1230468 a 0.05459559,0.05459559 0 0 1 0,0.00195 L 5.7871094,7.484375 v -0.00195 C 5.7453934,7.5225974 5.6724191,7.509366 5.6464844,7.4589844 L 4.2714844,4.71875 C 4.251169,4.6788766 4.261133,4.6252003 4.3027344,4.5996094 4.3831739,4.548262 4.4610992,4.4899719 4.5332031,4.4238281 4.5881386,4.373436 4.6396661,4.3191198 4.6875,4.2617188 c 0.013602,-0.015797 0.032515,-0.027723 0.052734,-0.03125 z" />
</svg>
