<?xml version="1.0" encoding="UTF-8" standalone="no"?>
<svg
   inkscape:version="1.2-dev (aa02a11, 2021-08-11)"
   sodipodi:docname="draw-path-symbolic.svg"
   viewBox="0 0 16 16"
   height="16"
   width="16"
   id="svg1"
   version="1.1"
   xmlns:inkscape="http://www.inkscape.org/namespaces/inkscape"
   xmlns:sodipodi="http://sodipodi.sourceforge.net/DTD/sodipodi-0.dtd"
   xmlns="http://www.w3.org/2000/svg"
   xmlns:svg="http://www.w3.org/2000/svg"
   xmlns:rdf="http://www.w3.org/1999/02/22-rdf-syntax-ns#"
   xmlns:cc="http://creativecommons.org/ns#"
   xmlns:dc="http://purl.org/dc/elements/1.1/">
  <style
     id="s0">
   .success { fill: #009909; }
   .warning { fill: #FF1990; }
   .warning   { fill: #00AAFF; }
  </style>
  <style
     id="s2"> 
     @import '../../highlights.css'; 
  </style>
  <metadata
     id="metadata2927">
    <rdf:RDF>
      <cc:Work
         rdf:about="">
        <dc:format>image/svg+xml</dc:format>
        <dc:type
           rdf:resource="http://purl.org/dc/dcmitype/StillImage" />
        <dc:title />
      </cc:Work>
    </rdf:RDF>
  </metadata>
  <defs
     id="defs2925">
    <inkscape:path-effect
       effect="mirror_symmetry"
       start_point="84.606108,29.379304"
       end_point="84.606108,85.770901"
       center_point="84.606108,57.575103"
       id="path-effect25421"
       is_visible="true"
       lpeversion="1.1"
       mode="free"
       discard_orig_path="false"
       fuse_paths="false"
       oposite_fuse="false"
       split_items="true"
       split_open="false" />
    <inkscape:path-effect
       effect="join_type"
       id="path-effect2216"
       is_visible="true"
       linecap_type="butt"
       line_width="1.7"
       linejoin_type="extrp_arc"
       miter_limit="100"
       attempt_force_join="true" />
  </defs>
  <sodipodi:namedview
     inkscape:snap-global="true"
     inkscape:document-rotation="0"
     inkscape:current-layer="g0"
     inkscape:window-maximized="1"
     inkscape:window-y="-9"
     inkscape:window-x="-9"
     inkscape:window-height="1013"
     inkscape:window-width="1920"
     inkscape:cy="11.985685"
     inkscape:cx="4.2127904"
     inkscape:zoom="25.280156"
     showgrid="false"
     id="namedview"
     guidetolerance="10"
     gridtolerance="10"
     objecttolerance="10"
     pagecolor="#f8f8f8"
     bordercolor="#c8c8c8"
     borderopacity="1"
     inkscape:pageshadow="0"
     inkscape:pageopacity="0"
     inkscape:pagecheckerboard="0"
     showguides="true"
     inkscape:guide-bbox="true">
    <inkscape:grid
       id="grid"
       type="xygrid"
       spacingx="0.66666667"
       spacingy="0.66667" />
  </sodipodi:namedview>
  <g
     id="g0"
     inkscape:label="draw-path">
    <path
       id="path2374"
       style="color:#000000;fill:#000000;fill-rule:evenodd;stroke-width:0.377953;-inkscape-stroke:none"
       d="m 1.8945312,1.5019531 -0.421875,0.40625 0.095703,0.1328125 c 1.180758,1.6346619 1.3098232,4.5592379 2.0273437,6.9238282 0.3589046,1.1827732 0.8846487,2.2502622 1.84375,2.9082032 0.923254,0.633352 2.230286,0.81988 4.0058594,0.457031 l 2.0996095,2.183594 1.515625,-1.423828 1.492187,-1.478516 -2.234375,-2.0078124 C 12.739488,7.8498222 12.582056,6.5477391 11.953125,5.625 11.297923,4.6637083 10.212789,4.1329845 9.0078125,3.7617188 6.5986526,3.0194311 3.6068792,2.8373394 2.0234375,1.6035156 Z m 1.3007813,1.3398438 c 1.760182,0.7050661 3.8790754,0.9933136 5.625,1.53125 1.1431826,0.3522274 2.0729615,0.8329177 2.6035155,1.6113281 0.531078,0.7791727 0.714446,1.8970915 0.248047,3.6640625 l -0.04883,0.1894531 2,1.7968754 -1.005859,0.996093 -1.050782,0.984375 L 9.6757812,11.648438 9.5,11.6875 C 7.7157149,12.08967 6.5832377,11.882466 5.8007812,11.345703 5.0188675,10.80931 4.5463534,9.8994856 4.2070312,8.78125 3.686899,7.0671534 3.4196673,4.9947259 2.75,3.2402344 L 7.1425781,7.6425781 C 6.9266097,8.0717241 6.9491489,8.5894609 7.2910156,8.9453125 h 0.00195 C 7.7325811,9.4015881 8.4637623,9.4162898 8.9199219,8.9765625 9.3763775,8.5367816 9.3893769,7.8037469 8.9492188,7.3476562 8.586771,6.9722406 8.0360474,6.9473025 7.5898438,7.1875 Z" />
  </g>
</svg>
