<?xml version="1.0" encoding="UTF-8" standalone="no"?>
<svg
   version="1.1"
   id="svg1"
   width="16"
   height="16"
   viewBox="0 0 16 16"
   sodipodi:docname="draw-freehand-symbolic.svg"
   inkscape:version="1.2-dev (aa02a11, 2021-08-11)"
   xmlns:inkscape="http://www.inkscape.org/namespaces/inkscape"
   xmlns:sodipodi="http://sodipodi.sourceforge.net/DTD/sodipodi-0.dtd"
   xmlns="http://www.w3.org/2000/svg"
   xmlns:svg="http://www.w3.org/2000/svg"
   xmlns:rdf="http://www.w3.org/1999/02/22-rdf-syntax-ns#"
   xmlns:cc="http://creativecommons.org/ns#"
   xmlns:dc="http://purl.org/dc/elements/1.1/">
  <style
     id="s0">
   .success { fill: #009909; }
   .warning { fill: #FF1990; }
   .warning   { fill: #00AAFF; }
  </style>
  <style
     id="s2"> 
     @import '../../highlights.css'; 
  </style>
  <metadata
     id="metadata1621">
    <rdf:RDF>
      <cc:Work
         rdf:about="">
        <dc:format>image/svg+xml</dc:format>
        <dc:type
           rdf:resource="http://purl.org/dc/dcmitype/StillImage" />
        <dc:title />
      </cc:Work>
    </rdf:RDF>
  </metadata>
  <defs
     id="defs1619">
    <inkscape:path-effect
       effect="join_type"
       id="path-effect3466"
       is_visible="true"
       linecap_type="butt"
       line_width="2"
       linejoin_type="extrp_arc"
       miter_limit="100"
       attempt_force_join="true" />
  </defs>
  <sodipodi:namedview
     inkscape:snap-global="false"
     objecttolerance="10"
     gridtolerance="10"
     guidetolerance="10"
     id="namedview"
     showgrid="false"
     inkscape:zoom="14.273664"
     inkscape:cx="-3.4679253"
     inkscape:cy="14.502233"
     inkscape:window-width="1920"
     inkscape:window-height="1013"
     inkscape:window-x="-9"
     inkscape:window-y="-9"
     inkscape:window-maximized="1"
     inkscape:current-layer="g0"
     inkscape:document-rotation="0"
     inkscape:object-paths="true"
     pagecolor="#f8f8f8"
     bordercolor="#c8c8c8"
     borderopacity="1"
     inkscape:pageshadow="0"
     inkscape:pageopacity="0"
     inkscape:pagecheckerboard="0">
    <inkscape:grid
       type="xygrid"
       id="grid"
       spacingx="0.66666667"
       spacingy="0.66667" />
  </sodipodi:namedview>
  <g
     id="g0"
     inkscape:label="draw-freehand">
    <path
       id="path3380"
       style="color:#000000;fill:#000000;stroke-width:0.377953;-inkscape-stroke:none"
       d="m 11.585938,1.5214844 c -0.259834,0.00862 -0.517369,0.1120888 -0.716797,0.3105468 l -8.6269535,8.5839848 -0.068359,0.06836 -0.017578,0.0957 C 1.9413389,11.726776 1.5625,14.097656 1.5625,14.097656 l -0.066406,0.419922 0.4160156,-0.06641 c 0,0 2.3126229,-0.371451 3.4199218,-0.5 L 5.4375,13.941406 5.5136719,13.865234 14.140625,5.28125 C 14.247012,5.1753808 14.32848,5.0517188 14.382812,4.9199219 14.491473,4.6563775 14.495147,4.3603964 14.394531,4.09375 14.34422,3.9604351 14.267193,3.8337574 14.164062,3.7246094 L 12.398438,1.8574219 c -0.10296,-0.1089662 -0.223843,-0.1936979 -0.353516,-0.25 -0.145899,-0.063349 -0.303041,-0.091109 -0.458984,-0.085937 z m 0.04297,0.6152344 c 0.05904,9.38e-4 0.118583,0.012874 0.173828,0.037109 0.0546,0.023952 0.107371,0.05971 0.154297,0.109375 l 1.763672,1.8691407 c 0.185861,0.1967058 0.181766,0.4969396 -0.0098,0.6875 L 12.154297,6.390625 9.734375,3.8300781 11.298828,2.2734375 c 0.04811,-0.047879 0.100621,-0.083112 0.15625,-0.1054687 0.05586,-0.02244 0.115056,-0.032186 0.173828,-0.03125 z M 9.2988281,4.2636719 11.716797,6.8242188 5.1542969,13.353516 C 4.1340623,13.477051 2.6500845,13.7133 2.2363281,13.779297 2.30378,13.359972 2.5553495,11.798632 2.7421875,10.787109 Z" />
  </g>
</svg>
