<?xml version="1.0" encoding="UTF-8" standalone="no"?>
<svg
   version="1.1"
   id="svg1"
   width="16"
   height="16"
   viewBox="0 0 16 16"
   sodipodi:docname="draw-spiral-symbolic.svg"
   inkscape:version="1.2-dev (aa02a11, 2021-08-11)"
   xmlns:inkscape="http://www.inkscape.org/namespaces/inkscape"
   xmlns:sodipodi="http://sodipodi.sourceforge.net/DTD/sodipodi-0.dtd"
   xmlns="http://www.w3.org/2000/svg"
   xmlns:svg="http://www.w3.org/2000/svg"
   xmlns:rdf="http://www.w3.org/1999/02/22-rdf-syntax-ns#"
   xmlns:cc="http://creativecommons.org/ns#"
   xmlns:dc="http://purl.org/dc/elements/1.1/">
  <style
     id="s0">
   .success { fill: #009909; }
   .warning { fill: #FF1990; }
   .warning   { fill: #00AAFF; }
  </style>
  <style
     id="s2"> 
     @import '../../highlights.css'; 
  </style>
  <metadata
     id="metadata337">
    <rdf:RDF>
      <cc:Work
         rdf:about="">
        <dc:format>image/svg+xml</dc:format>
        <dc:type
           rdf:resource="http://purl.org/dc/dcmitype/StillImage" />
        <dc:title />
      </cc:Work>
    </rdf:RDF>
  </metadata>
  <defs
     id="defs335">
    <inkscape:path-effect
       effect="join_type"
       id="path-effect844"
       is_visible="true"
       lpeversion="1"
       linecap_type="round"
       line_width="1.34"
       linejoin_type="extrp_arc"
       miter_limit="100"
       attempt_force_join="true" />
    <inkscape:path-effect
       effect="spiro"
       id="path-effect842"
       is_visible="true"
       lpeversion="1" />
    <inkscape:path-effect
       effect="join_type"
       id="path-effect838"
       is_visible="true"
       lpeversion="1"
       linecap_type="round"
       line_width="1.34"
       linejoin_type="round"
       miter_limit="100"
       attempt_force_join="true" />
    <inkscape:path-effect
       update_on_knot_move="true"
       attempt_force_join="true"
       miter_limit="4"
       offset="0.01775208"
       unit="px"
       linejoin_type="miter"
       lpeversion="1"
       is_visible="false"
       id="path-effect835"
       effect="offset" />
  </defs>
  <sodipodi:namedview
     inkscape:snap-bbox-midpoints="true"
     inkscape:snap-bbox-edge-midpoints="true"
     inkscape:bbox-nodes="true"
     inkscape:bbox-paths="true"
     inkscape:snap-smooth-nodes="true"
     inkscape:snap-bbox="true"
     inkscape:snap-object-midpoints="true"
     inkscape:snap-midpoints="true"
     inkscape:snap-intersection-paths="true"
     inkscape:object-paths="true"
     objecttolerance="10"
     gridtolerance="10"
     guidetolerance="10"
     id="namedview"
     showgrid="false"
     inkscape:zoom="25.287549"
     inkscape:cx="5.7538198"
     inkscape:cy="4.8442813"
     inkscape:window-width="1920"
     inkscape:window-height="1013"
     inkscape:window-x="-9"
     inkscape:window-y="-9"
     inkscape:window-maximized="1"
     inkscape:current-layer="svg1"
     inkscape:document-rotation="0"
     inkscape:snap-global="true"
     pagecolor="#f8f8f8"
     bordercolor="#c8c8c8"
     borderopacity="1"
     inkscape:pageshadow="0"
     inkscape:pageopacity="0"
     inkscape:pagecheckerboard="0">
    <inkscape:grid
       type="xygrid"
       id="grid"
       spacingx="0.66666667"
       spacingy="0.66667" />
  </sodipodi:namedview>
  <path
     id="path21876"
     style="color:#000000;fill:#000000;fill-rule:evenodd;stroke-width:0.959498;-inkscape-stroke:none"
     sodipodi:type="inkscape:offset"
     inkscape:radius="-0.13894679"
     inkscape:original="M 8.8496094 1.6875 C 7.237557 1.3721162 5.5192745 1.667673 4.09375 2.7128906 C 1.7221139 4.4518133 0.96418971 7.9267922 2.8183594 10.347656 C 4.3077849 12.292298 7.2324678 12.902939 9.2207031 11.279297 C 10.738257 10.040025 11.203208 7.6537599 9.7988281 6.1035156 C 9.3046709 5.5580325 8.6134954 5.2167986 7.890625 5.1464844 C 7.1677546 5.0761699 6.3901817 5.2984588 5.8417969 5.9042969 C 5.5065324 6.2746869 5.313341 6.7700485 5.3105469 7.2851562 C 5.3077711 7.800264 5.5542992 8.3763751 6.1035156 8.6601562 C 6.4518464 8.8401396 6.7563812 8.8104087 7.0878906 8.6855469 C 7.2536448 8.6231164 7.4435592 8.5152676 7.5585938 8.2871094 C 7.6736282 8.0589512 7.6315692 7.7562256 7.5097656 7.546875 C 7.5097656 7.546875 6.9999653 8.1018304 6.6953125 8.0234375 C 6.419437 7.9524494 6.2805162 7.5728561 6.2558594 7.2890625 C 6.2326648 7.0220952 6.3846331 6.7139864 6.5429688 6.5390625 C 6.8775143 6.169462 7.3178022 6.0393378 7.796875 6.0859375 C 8.2759478 6.1325373 8.7732816 6.3780589 9.0996094 6.7382812 C 10.103423 7.8463553 9.7555745 9.6236199 8.625 10.546875 C 7.0836954 11.805543 4.7524454 11.319419 3.5683594 9.7734375 C 2.0581866 7.8017079 2.6877827 4.9150574 4.6523438 3.4746094 C 7.053011 1.7144007 10.495113 2.4898955 12.189453 4.875 C 14.198944 7.7037395 13.279586 11.705634 10.472656 13.652344 L 11.011719 14.427734 C 13.430578 12.750166 14.628964 9.7526984 14.09375 6.9746094 C 13.915346 6.0485798 13.543439 5.1481047 12.960938 4.328125 C 11.966946 2.928892 10.461662 2.0028838 8.8496094 1.6875 z "
     d="M 7.6269531,1.7070312 C 6.4245129,1.7058538 5.2202758,2.0583784 4.1757812,2.8242188 1.8639469,4.5192938 1.1237079,7.9082767 2.9277344,10.263672 4.3723071,12.149753 7.2095023,12.742498 9.1328125,11.171875 10.593453,9.9790798 11.041816,7.683622 9.6953125,6.1972656 9.2250792,5.6781913 8.5652043,5.352103 7.8769531,5.2851562 7.1917243,5.2185032 6.4611916,5.4281201 5.9453125,5.9980469 5.6335893,6.3424292 5.451827,6.8043052 5.4492188,7.2851562 c -0.00253,0.4702187 0.2226029,0.9955931 0.71875,1.2519532 0.313445,0.1619578 0.5590429,0.1351109 0.8710937,0.017578 0.1491201,-0.056165 0.2992492,-0.1410968 0.3945313,-0.3300781 0.061268,-0.121519 0.049045,-0.2812263 0.00977,-0.4296875 -0.053992,0.051519 -0.060294,0.066333 -0.140625,0.1289062 C 7.2145472,7.9925209 7.1141163,8.0612837 7.0078125,8.109375 6.9015087,8.1574663 6.7836931,8.1899915 6.6601562,8.1582031 6.4697846,8.1092168 6.341026,7.9610533 6.2578125,7.8007812 6.174599,7.6405092 6.1310012,7.4597738 6.1171875,7.3007812 6.0886651,6.9724921 6.2563256,6.6476255 6.4394531,6.4453125 6.803813,6.0427735 7.2985021,5.8974587 7.8105469,5.9472656 8.3272041,5.9975213 8.8507284,6.2555325 9.203125,6.6445312 10.267294,7.8192291 9.900314,9.6846176 8.7128906,10.654297 7.1048454,11.967467 4.6880524,11.462133 3.4589844,9.8574219 1.8976697,7.8189198 2.5457806,4.8477008 4.5703125,3.3632812 7.0377494,1.5541159 10.565176,2.3489791 12.302734,4.7949219 c 2.029322,2.8566545 1.134277,6.8631791 -1.644531,8.8808591 l 0.382813,0.550781 C 13.336481,12.566439 14.472876,9.6775491 13.957031,7 13.782248,6.0927632 13.418514,5.211793 12.847656,4.4082031 11.875258,3.0393676 10.400018,2.1328921 8.8222656,1.8242188 8.4278303,1.747051 8.0277665,1.7074237 7.6269531,1.7070312 Z" />
</svg>
