<?xml version="1.0" encoding="UTF-8" standalone="no"?>
<svg
   version="1.1"
   id="svg1"
   width="16"
   height="16"
   viewBox="0 0 16 16"
   sodipodi:docname="draw-cuboid-symbolic.svg"
   inkscape:version="1.3-dev (fdfee2c, 2022-07-24)"
   xmlns:inkscape="http://www.inkscape.org/namespaces/inkscape"
   xmlns:sodipodi="http://sodipodi.sourceforge.net/DTD/sodipodi-0.dtd"
   xmlns="http://www.w3.org/2000/svg"
   xmlns:svg="http://www.w3.org/2000/svg"
   xmlns:rdf="http://www.w3.org/1999/02/22-rdf-syntax-ns#"
   xmlns:cc="http://creativecommons.org/ns#"
   xmlns:dc="http://purl.org/dc/elements/1.1/">
  <style
     id="s0">
   .success { fill: #009909; }
   .warning { fill: #FF1990; }
   .warning   { fill: #00AAFF; }
  </style>
  <style
     id="s2"> 
     @import '../../highlights.css'; 
  </style>
  <metadata
     id="metadata1282">
    <rdf:RDF>
      <cc:Work
         rdf:about="">
        <dc:format>image/svg+xml</dc:format>
        <dc:type
           rdf:resource="http://purl.org/dc/dcmitype/StillImage" />
        <dc:title />
      </cc:Work>
    </rdf:RDF>
  </metadata>
  <defs
     id="defs1280">
    <inkscape:path-effect
       effect="join_type"
       id="path-effect848"
       is_visible="true"
       lpeversion="1"
       linecap_type="butt"
       line_width="1.2"
       linejoin_type="extrp_arc"
       miter_limit="100"
       attempt_force_join="true" />
    <inkscape:path-effect
       effect="join_type"
       id="path-effect979"
       is_visible="true"
       linecap_type="butt"
       line_width="1.2"
       linejoin_type="round"
       miter_limit="100"
       attempt_force_join="true" />
  </defs>
  <sodipodi:namedview
     inkscape:snap-others="false"
     objecttolerance="10"
     gridtolerance="10"
     guidetolerance="10"
     id="namedview"
     showgrid="false"
     inkscape:zoom="21.479795"
     inkscape:cx="3.6313195"
     inkscape:cy="12.826007"
     inkscape:window-width="1920"
     inkscape:window-height="1013"
     inkscape:window-x="-9"
     inkscape:window-y="-9"
     inkscape:window-maximized="1"
     inkscape:current-layer="svg1"
     inkscape:document-rotation="0"
     showguides="true"
     pagecolor="#f8f8f8"
     bordercolor="#c8c8c8"
     borderopacity="1"
     inkscape:pageshadow="0"
     inkscape:pageopacity="0"
     inkscape:pagecheckerboard="0"
     inkscape:guide-bbox="true"
     inkscape:snap-global="false"
     inkscape:showpageshadow="0"
     inkscape:deskcolor="#f8f8f8">
    <inkscape:grid
       type="xygrid"
       id="grid"
       spacingx="0.66666667"
       spacingy="0.66667" />
  </sodipodi:namedview>
  <path
     id="path1781"
     style="color:#000000;display:inline;fill:#000000;fill-rule:evenodd;stroke-width:0.334705;-inkscape-stroke:none"
     sodipodi:type="inkscape:offset"
     inkscape:radius="-0.095395297"
     inkscape:original="M 8.0332031 1.4648438 L 7.9824219 1.4824219 L 1.4042969 3.6035156 L 1.4042969 3.7265625 C 1.4042969 6.2030131 1.3457031 8.9148364 1.3457031 11.396484 L 1.3457031 11.503906 L 8.0527344 14.535156 L 14.654297 11.308594 L 14.654297 3.6035156 L 8.0332031 1.4648438 z M 8.0625 2.3027344 L 13.138672 4.0273438 L 8.0429688 5.984375 L 2.984375 3.9726562 L 8.0625 2.3027344 z M 13.822266 4.6210938 L 13.822266 10.722656 L 8.4824219 13.324219 L 8.3964844 6.7050781 L 13.822266 4.6210938 z M 2.2636719 4.625 L 7.5019531 6.7050781 L 7.6113281 13.326172 L 2.28125 10.9375 L 2.2636719 4.625 z "
     d="m 8.0351562,1.5644531 -0.021484,0.00781 a 0.09540484,0.09540484 0 0 1 -0.00195,0 L 1.5,3.6738281 v 0.052734 c 0,2.4779553 -0.058594,5.1897759 -0.058594,7.6699215 v 0.04492 L 8.0507812,14.429688 14.558594,11.25 V 3.6738281 Z m -0.00195,0.6484375 a 0.09540484,0.09540484 0 0 1 0.060547,0 L 13.169922,3.9375 a 0.09540484,0.09540484 0 0 1 0.0039,0.1796875 L 8.078125,6.0742188 a 0.09540484,0.09540484 0 0 1 -0.070312,-0.00195 L 2.9492188,4.0605469 a 0.09540484,0.09540484 0 0 1 0.00586,-0.1777344 z M 13.787109,4.53125 a 0.09540484,0.09540484 0 0 1 0.13086,0.089844 v 6.1015622 a 0.09540484,0.09540484 0 0 1 -0.05469,0.08594 L 8.5234375,13.410156 A 0.09540484,0.09540484 0 0 1 8.3867188,13.326172 L 8.3007812,6.7070312 a 0.09540484,0.09540484 0 0 1 0.060547,-0.091797 z m -11.4882809,0.00586 5.2382813,2.0800781 a 0.09540484,0.09540484 0 0 1 0.060547,0.085937 l 0.109375,6.621094 a 0.09540484,0.09540484 0 0 1 -0.1347656,0.08984 L 2.2421875,11.025391 A 0.09540484,0.09540484 0 0 1 2.1855469,10.9375 L 2.1679688,4.625 a 0.09540484,0.09540484 0 0 1 0.1308593,-0.087891 z" />
</svg>
