<?xml version="1.0" encoding="UTF-8" standalone="no"?>
<svg
   xmlns:dc="http://purl.org/dc/elements/1.1/"
   xmlns:cc="http://creativecommons.org/ns#"
   xmlns:rdf="http://www.w3.org/1999/02/22-rdf-syntax-ns#"
   xmlns:svg="http://www.w3.org/2000/svg"
   xmlns="http://www.w3.org/2000/svg"
   xmlns:sodipodi="http://sodipodi.sourceforge.net/DTD/sodipodi-0.dtd"
   xmlns:inkscape="http://www.inkscape.org/namespaces/inkscape"
   inkscape:version="1.0.1 (3bc2e813f5, 2020-09-07)"
   sodipodi:docname="edit-paste-symbolic.svg"
   viewBox="0 0 16 16"
   height="16"
   width="16"
   id="svg1"
   version="1.1">
  <metadata
     id="metadata1097">
    <rdf:RDF>
      <cc:Work
         rdf:about="">
        <dc:format>image/svg+xml</dc:format>
        <dc:type
           rdf:resource="http://purl.org/dc/dcmitype/StillImage" />
        <dc:title />
      </cc:Work>
    </rdf:RDF>
  </metadata>
  <defs
     id="defs1095">
    <inkscape:path-effect
       effect="join_type"
       id="path-effect846"
       is_visible="true"
       lpeversion="1"
       linecap_type="butt"
       line_width="1.33"
       linejoin_type="extrp_arc"
       miter_limit="100"
       attempt_force_join="true" />
    <inkscape:path-effect
       effect="fillet_chamfer"
       id="path-effect843"
       is_visible="true"
       lpeversion="1"
       satellites_param="F,0,0,1,0,0,0,1 @ F,0,0,1,0,0.4,0,1 @ F,0,0,1,0,0.4,0,1 @ F,0,0,1,0,0.4,0,1 @ F,0,0,1,0,0.4,0,1 @ F,0,0,1,0,0.4,0,1"
       unit="px"
       method="auto"
       mode="F"
       radius="0.4"
       chamfer_steps="1"
       flexible="false"
       use_knot_distance="true"
       apply_no_radius="true"
       apply_with_radius="true"
       only_selected="false"
       hide_knots="false" />
    <inkscape:path-effect
       effect="join_type"
       id="path-effect845"
       is_visible="true"
       lpeversion="1"
       linecap_type="square"
       line_width="0.68942499"
       linejoin_type="extrp_arc"
       miter_limit="100"
       attempt_force_join="true" />
    <inkscape:path-effect
       effect="join_type"
       id="path-effect840"
       is_visible="true"
       lpeversion="1"
       linecap_type="square"
       line_width="0.68942499"
       linejoin_type="extrp_arc"
       miter_limit="100"
       attempt_force_join="true" />
    <inkscape:path-effect
       effect="offset"
       id="path-effect844"
       is_visible="false"
       lpeversion="1"
       linejoin_type="miter"
       unit="px"
       offset="-0.33330008"
       miter_limit="4"
       attempt_force_join="true"
       update_on_knot_move="true" />
    <inkscape:path-effect
       effect="join_type"
       id="path-effect842"
       is_visible="true"
       lpeversion="1"
       linecap_type="butt"
       line_width="0.68942243"
       linejoin_type="extrp_arc"
       miter_limit="100"
       attempt_force_join="true" />
  </defs>
  <style
     id="s0">
.success { fill:#009909; }
.warning { fill:#FF1990; }
.warning { fill:#00AAFF; }
</style>
  <style
     id="s2">
@import '../../highlights.css';
</style>
  <sodipodi:namedview
     inkscape:document-rotation="0"
     inkscape:current-layer="g1990"
     inkscape:window-maximized="1"
     inkscape:window-y="-9"
     inkscape:window-x="-9"
     inkscape:window-height="1013"
     inkscape:window-width="1920"
     inkscape:cy="5.580561"
     inkscape:cx="21.075108"
     inkscape:zoom="34.34462"
     showgrid="true"
     id="namedview"
     guidetolerance="10"
     gridtolerance="10"
     objecttolerance="10"
     inkscape:snap-smooth-nodes="true">
    <inkscape:grid
       id="grid"
       type="xygrid"
       spacingx="0.66667"
       spacingy="0.66667" />
  </sodipodi:namedview>
  <g
     inkscape:label="00378"
     id="edit-paste"
     transform="matrix(1,0,0,0.999994,-471,-1132.355)">
    <path
       style="opacity:0;fill:none"
       d="m 471,1132.3621 h 16 v 16 h -16 z"
       id="gtk-paste"
       inkscape:connector-curvature="0" />
    <g
       id="g1990"
       transform="translate(0,0.66667376)">
      <rect
         id="rect838"
         width="4.00002"
         height="2.6666088"
         x="477.00003"
         y="1133.6952"
         ry="0.66660392"
         class="base"
         style="stroke-width:1.15471" />
      <path
         id="path842"
         d="m 455.17711,1135.0285 c -0.46779,0 -0.84378,0.376 -0.84375,0.8437 l 6.2e-4,8.9774 c 4e-5,0.4678 0.37596,0.8457 0.84375,0.8457 h 7.66797 c 0.46779,0 0.84372,-0.3779 0.84375,-0.8457 l 7.1e-4,-8.9774 c 3e-5,-0.4677 -0.37596,-0.8437 -0.84375,-0.8437 h -1.17969 v 0.6894 h 1.17969 c 0.0862,0 0.1543,0.068 0.15429,0.1543 l -7e-4,8.9774 c -10e-6,0.086 -0.0681,0.1562 -0.1543,0.1562 h -7.66797 c -0.0862,0 -0.15429,-0.07 -0.15429,-0.1562 l -6.3e-4,-8.9774 c 0,-0.086 0.0681,-0.1543 0.1543,-0.1543 h 1.15625 v -0.6894 z"
         sodipodi:nodetypes="ssssssssccssssssssccs"
         class="base"
         style="stroke-width:1" />
      <path
         style="fill:#000000;fill-rule:nonzero;stroke:none;stroke-width:1px;stroke-linecap:butt;stroke-linejoin:miter;stroke-opacity:1"
         d="m 481.66672,1135.6935 h 0.93334 c 0,0 -0.0422,-0 -0.0422,-0 0,0 -0.0374,-0.01 -0.0374,-0.01 0,0 -0.0318,-0.012 -0.0318,-0.012 0,0 -0.0266,-0.014 -0.0266,-0.014 0,0 -0.022,-0.015 -0.022,-0.015 0,0 -0.0183,-0.015 -0.0183,-0.015 0,0 -0.0152,-0.015 -0.0152,-0.015 0,0 -0.0126,-0.014 -0.0126,-0.014 0,0 -0.059,-0.1666 -0.059,-0.1666 v 9.2001 c 0,0 0.003,-0.042 0.003,-0.042 0,0 0.009,-0.037 0.009,-0.037 0,0 0.0123,-0.032 0.0123,-0.032 0,0 0.0142,-0.027 0.0142,-0.027 0,0 0.015,-0.022 0.015,-0.022 0,0 0.0152,-0.018 0.0152,-0.018 0,0 0.0149,-0.015 0.0149,-0.015 0,0 0.0145,-0.013 0.0145,-0.013 0,0 0.16665,-0.059 0.16665,-0.059 h -7.20004 c 0,0 0.0422,0 0.0422,0 0,0 0.0374,0.01 0.0374,0.01 0,0 0.0318,0.012 0.0318,0.012 0,0 0.0266,0.014 0.0266,0.014 0,0 0.022,0.015 0.022,0.015 0,0 0.0183,0.015 0.0183,0.015 0,0 0.0152,0.015 0.0152,0.015 0,0 0.0126,0.014 0.0126,0.014 0,0 0.059,0.1666 0.059,0.1666 v -9.2001 c 0,0 -0.003,0.042 -0.003,0.042 0,0 -0.009,0.037 -0.009,0.037 0,0 -0.0123,0.032 -0.0123,0.032 0,0 -0.0142,0.027 -0.0142,0.027 0,0 -0.015,0.022 -0.015,0.022 0,0 -0.0152,0.018 -0.0152,0.018 0,0 -0.0149,0.015 -0.0149,0.015 0,0 -0.0145,0.013 -0.0145,0.013 0,0 -0.16665,0.059 -0.16665,0.059 h 0.93334 v -1.33 h -0.93334 c -0.59154,0 -1.065,0.4735 -1.065,1.065 v 9.2001 c 0,0.5915 0.47346,1.065 1.065,1.065 h 7.20004 c 0.59154,0 1.065,-0.4735 1.065,-1.065 v -9.2001 c 0,-0.5915 -0.47346,-1.065 -1.065,-1.065 h -0.93334 z"
         id="path841"
         inkscape:path-effect="#path-effect843;#path-effect846"
         inkscape:original-d="m 481.66672,1135.0285 1.33334,0 v 10.0001 h -8.00004 v -10.0001 l 1.33334,0"
         sodipodi:nodetypes="cccccc" />
    </g>
  </g>
</svg>
