<?xml version="1.0" encoding="UTF-8" standalone="no"?>
<svg
   inkscape:version="1.1 (c4e8f9ed74, 2021-05-24)"
   sodipodi:docname="exchange-positions-clockwise-symbolic.svg"
   viewBox="0 0 16 16"
   height="16"
   width="16"
   id="svg1"
   version="1.1"
   xmlns:inkscape="http://www.inkscape.org/namespaces/inkscape"
   xmlns:sodipodi="http://sodipodi.sourceforge.net/DTD/sodipodi-0.dtd"
   xmlns="http://www.w3.org/2000/svg"
   xmlns:svg="http://www.w3.org/2000/svg"
   xmlns:rdf="http://www.w3.org/1999/02/22-rdf-syntax-ns#"
   xmlns:cc="http://creativecommons.org/ns#"
   xmlns:dc="http://purl.org/dc/elements/1.1/">
  <metadata
     id="metadata17975">
    <rdf:RDF>
      <cc:Work
         rdf:about="">
        <dc:format>image/svg+xml</dc:format>
        <dc:type
           rdf:resource="http://purl.org/dc/dcmitype/StillImage" />
      </cc:Work>
    </rdf:RDF>
  </metadata>
  <defs
     id="defs17973">
    <inkscape:path-effect
       effect="join_type"
       id="path-effect883"
       is_visible="true"
       lpeversion="1"
       linecap_type="butt"
       line_width="0.99999996"
       linejoin_type="extrp_arc"
       miter_limit="100"
       attempt_force_join="true" />
    <inkscape:path-effect
       effect="join_type"
       id="path-effect881"
       is_visible="false"
       lpeversion="1"
       linecap_type="butt"
       line_width="0.97901702"
       linejoin_type="extrp_arc"
       miter_limit="100"
       attempt_force_join="true" />
    <inkscape:path-effect
       effect="dashed_stroke"
       id="path-effect879"
       is_visible="false"
       lpeversion="1"
       numberdashes="2"
       holefactor="0.46"
       splitsegments="false"
       halfextreme="false"
       unifysegment="true"
       message="Add &lt;b&gt;&quot;Fill Between Many LPE&quot;&lt;/b&gt; to add fill." />
    <inkscape:path-effect
       effect="join_type"
       id="path-effect874"
       is_visible="true"
       lpeversion="1"
       linecap_type="butt"
       line_width="1.1999996"
       linejoin_type="extrp_arc"
       miter_limit="100"
       attempt_force_join="true" />
    <inkscape:path-effect
       effect="dashed_stroke"
       id="path-effect872"
       is_visible="true"
       lpeversion="1"
       numberdashes="3"
       holefactor="0.2"
       splitsegments="true"
       halfextreme="true"
       unifysegment="true"
       message="Add &lt;b&gt;&quot;Fill Between Many LPE&quot;&lt;/b&gt; to add fill." />
  </defs>
  <style
     id="s0">
.success { fill:#009909; }
.warning { fill:#FF1990; }
.warning { fill:#00AAFF; }
</style>
  <style
     id="s2">
@import '../../highlights.css';
</style>
  <sodipodi:namedview
     inkscape:document-rotation="0"
     inkscape:current-layer="g30802"
     inkscape:window-maximized="1"
     inkscape:window-y="-9"
     inkscape:window-x="-9"
     inkscape:window-height="1013"
     inkscape:window-width="1920"
     inkscape:cy="2.726908"
     inkscape:cx="5.3622144"
     inkscape:zoom="70.95949"
     showgrid="false"
     id="namedview"
     guidetolerance="10"
     gridtolerance="10"
     objecttolerance="10"
     pagecolor="#f8f8f8"
     bordercolor="#c8c8c8"
     borderopacity="1"
     inkscape:pageshadow="0"
     inkscape:pageopacity="0"
     inkscape:pagecheckerboard="0"
     inkscape:snap-bbox="true"
     inkscape:snap-bbox-midpoints="true"
     inkscape:snap-global="false">
    <inkscape:grid
       id="grid"
       type="xygrid"
       spacingx="0.66667"
       spacingy="0.66667" />
  </sodipodi:namedview>
  <g
     inkscape:label="00360"
     id="exchange-positions"
     transform="scale(0.666667)">
    <title
       id="title40855">exchange-positions</title>
    <path
       inkscape:connector-curvature="0"
       d="m 14.185576,4.7250471 v 1.389954 l 2.779927,1.25e-5 c 0.767648,4.2e-6 1.389953,0.6223038 1.389953,1.3899541 v 1.3899541 h -2.779921 l 3.475473,4.1698822 3.474311,-4.1698822 H 19.74541 V 7.5049677 c 0,-1.5353007 -1.244608,-2.7799081 -2.779907,-2.7799081 z"
       id="path40863-8"
       style="fill:#000000;fill-opacity:1;stroke-width:1"
       sodipodi:nodetypes="ccsscccccssc" />
    <path
       style="color:#000000;fill:#000000;stroke-width:1;-inkscape-stroke:none"
       d="M 5.1530867,1.9303525 V 2.5525869 8.8949218 H 12.117657 V 1.9303525 Z M 6.3958414,3.1748213 H 10.873187 V 7.6504526 H 6.3958414 Z"
       id="rect19619" />
    <path
       inkscape:connector-curvature="0"
       d="m 13.49283,19.246763 v -1.389954 l -2.779927,-1.3e-5 c -0.7676483,-4e-6 -1.3899533,-0.622304 -1.3899533,-1.389954 v -1.389954 h 2.7799213 l -3.4754733,-4.169882 -3.474311,4.169882 h 2.779909 v 1.389954 c 0,1.535301 1.244608,2.779908 2.7799073,2.779908 z"
       id="path20456"
       style="fill:#000000;fill-opacity:1;stroke-width:1"
       sodipodi:nodetypes="ccsscccccssc" />
    <path
       style="color:#000000;fill:#000000;stroke-width:1;-inkscape-stroke:none"
       d="m 22.525319,22.041457 v -0.622234 -6.342335 h -6.96457 v 6.964569 z m -1.242755,-1.244469 h -4.477346 v -4.475631 h 4.477346 z"
       id="path20458" />
    <g
       id="g30802"
       transform="matrix(-0.5308554,0.56140979,-0.56140979,-0.5308554,1.9984413,11.528422)"
       style="stroke-width:1.29425">
      <g
         id="g37017"
         transform="rotate(-126.37241,6.291345,-9.0938473)">
        <path
           style="fill:#000000;fill-opacity:1;stroke-width:1.29341"
           inkscape:transform-center-y="0.16492759"
           inkscape:transform-center-x="0.11767759"
           inkscape:connector-curvature="0"
           d="M 5.9184096,-9.298789 1.9184115,-13.298807 H 5.9184096 Z"
           id="path40825"
           sodipodi:nodetypes="cccc" />
        <path
           id="path877"
           style="fill:#000000;stroke-width:1.94136"
           d="m 8.7988281,-12.175781 a 0.18664762,0.18664762 0 0 0 -0.125,0.07031 l -0.6171875,0.785157 a 0.18664762,0.18664762 0 0 0 0.03125,0.261718 c 0.9360131,0.738912 1.3039054,1.9891794 0.9179688,3.1171878 C 8.6199833,-6.8135737 7.5598858,-6.0497363 6.3671875,-6.0390625 5.1744759,-6.0283886 4.1032884,-6.773719 3.6972656,-7.8945312 3.2912403,-9.0153501 3.6379034,-10.271795 4.5605469,-11.027344 a 0.18664762,0.18664762 0 0 0 0.025391,-0.261718 L 3.9550781,-12.0625 a 0.18664762,0.18664762 0 0 0 -0.2636719,-0.02734 c -1.3743395,1.125441 -1.8883657,2.9954851 -1.2832031,4.6660159 0.6051375,1.6704612 2.1967409,2.7756584 3.9726563,2.7597656 1.7759778,-0.015891 3.346713,-1.1509581 3.9218746,-2.8320313 0.575178,-1.6811193 0.02701,-3.5400112 -1.3671871,-4.6406252 a 0.18664762,0.18664762 0 0 0 -0.1367188,-0.03906 z" />
      </g>
    </g>
  </g>
  <style
     id="s0-9">
.success { fill:#009909; }
.warning { fill:#FF1990; }
.warning { fill:#00AAFF; }
</style>
  <style
     id="s2-1">
@import '../../highlights.css';
</style>
  <style
     id="s0-3">
.success { fill:#009909; }
.warning { fill:#FF1990; }
.warning { fill:#00AAFF; }
</style>
  <style
     id="s2-6">
@import '../../highlights.css';
</style>
</svg>
