<?xml version="1.0" encoding="UTF-8" standalone="no"?>
<svg
   inkscape:version="1.2-dev (aa02a11, 2021-08-11)"
   sodipodi:docname="flatten-symbolic.svg"
   viewBox="0 0 16 16"
   height="16"
   width="16"
   id="svg1"
   version="1.1"
   xmlns:inkscape="http://www.inkscape.org/namespaces/inkscape"
   xmlns:sodipodi="http://sodipodi.sourceforge.net/DTD/sodipodi-0.dtd"
   xmlns="http://www.w3.org/2000/svg"
   xmlns:svg="http://www.w3.org/2000/svg"
   xmlns:rdf="http://www.w3.org/1999/02/22-rdf-syntax-ns#"
   xmlns:cc="http://creativecommons.org/ns#"
   xmlns:dc="http://purl.org/dc/elements/1.1/">
  <metadata
     id="metadata6552">
    <rdf:RDF>
      <cc:Work
         rdf:about="">
        <dc:format>image/svg+xml</dc:format>
        <dc:type
           rdf:resource="http://purl.org/dc/dcmitype/StillImage" />
      </cc:Work>
    </rdf:RDF>
  </metadata>
  <defs
     id="defs6550">
    <inkscape:path-effect
       effect="offset"
       id="path-effect52555"
       is_visible="true"
       lpeversion="1"
       linejoin_type="miter"
       unit="mm"
       offset="-0.051592844"
       miter_limit="4"
       attempt_force_join="false"
       update_on_knot_move="true" />
  </defs>
  <style
     id="s0">
.success { fill:#009909; }
.warning { fill:#FF1990; }
.warning { fill:#00AAFF; }
</style>
  <style
     id="s2">
@import '../../highlights.css';
</style>
  <sodipodi:namedview
     inkscape:document-rotation="0"
     inkscape:current-layer="svg1"
     inkscape:window-maximized="1"
     inkscape:window-y="-6"
     inkscape:window-x="65"
     inkscape:window-height="890"
     inkscape:window-width="1296"
     inkscape:cy="8"
     inkscape:cx="8"
     inkscape:zoom="41.125"
     showgrid="false"
     id="namedview"
     guidetolerance="10"
     gridtolerance="10"
     objecttolerance="10"
     pagecolor="#f8f8f8"
     bordercolor="#c8c8c8"
     borderopacity="1"
     inkscape:pageshadow="0"
     inkscape:pageopacity="0"
     inkscape:pagecheckerboard="0">
    <inkscape:grid
       id="grid"
       type="xygrid" />
  </sodipodi:namedview>
  <g
     id="flatten"
     inkscape:label="00388"
     transform="matrix(1.017748,0,0,1.017747,-287.59623,-546.25767)">
    <path
       style="opacity:0;fill:none"
       d="m 282.58109,536.7323 h 15.72099 v 15.721 h -15.72099 z"
       id="rect13989"
       inkscape:connector-curvature="0" />
    <path
       inkscape:connector-curvature="0"
       style="opacity:1;stroke-linecap:butt"
       d="m 530.5332,205.80273 c -0.55575,-0.004 -1.09618,0.28529 -1.42114,0.73278 -0.17152,0.22316 -0.27669,0.48903 -0.34058,0.76137 -1.04879,0.28496 -2.05104,0.75952 -2.9094,1.42946 -0.23723,0.17705 -0.48862,0.33372 -0.73317,0.50022 -0.13152,-0.12454 -0.27174,-0.24109 -0.43106,-0.32876 -0.47173,-0.27119 -1.07588,-0.29898 -1.56741,-0.0641 -0.36829,0.16789 -0.67225,0.4658 -0.85791,0.82403 -0.13806,0.25981 -0.20666,0.55264 -0.22115,0.84572 -0.003,0.03 0.005,0.0691 -0.0377,0.0629 -0.50497,0.0966 -1.01758,0.15108 -1.53142,0.16689 -0.27651,0.009 -0.55324,0.009 -0.82987,0.007 -0.003,0.36654 -0.005,0.73307 -0.008,1.09961 0.69178,0.005 1.38637,-0.009 2.07139,-0.11397 0.21249,-0.0315 0.42367,-0.0714 0.63369,-0.11649 0.15059,0.21936 0.33358,0.41979 0.55983,0.56281 0.43784,0.28795 1.00926,0.36141 1.5041,0.18679 0.57962,-0.19672 1.02718,-0.70938 1.17608,-1.29899 0.07,-0.26488 0.0791,-0.54362 0.0353,-0.81362 -0.003,-0.0298 0.0441,-0.0364 0.0628,-0.0562 0.33585,-0.21489 0.6704,-0.43275 0.98472,-0.67862 0.62684,-0.46606 1.33166,-0.82525 2.07646,-1.0602 0.0369,-0.0124 0.0737,-0.0249 0.11057,-0.0373 0.0941,0.19405 0.19489,0.38733 0.34046,0.54862 0.33474,0.39441 0.85104,0.63431 1.37073,0.6189 0.5319,-0.007 1.04351,-0.28378 1.36264,-0.70559 0.1726,-0.22123 0.28491,-0.48309 0.35256,-0.75403 0.008,-0.0287 0.009,-0.0674 0.0487,-0.0523 0.6244,0.023 1.24773,0.0716 1.87252,0.0846 0,-0.37109 0,-0.74219 0,-1.11328 -0.61238,-0.0257 -1.22285,-0.0854 -1.83549,-0.10653 -0.0626,-0.003 -0.1253,-0.005 -0.18795,-0.007 -0.0883,-0.18998 -0.19578,-0.37227 -0.33789,-0.52734 -0.32461,-0.37315 -0.81699,-0.59778 -1.3125,-0.59766 z m 0,0.73047 c 0.36172,-0.004 0.71255,0.19032 0.91251,0.48979 0.29923,0.42427 0.26679,1.04778 -0.0761,1.43822 -0.24719,0.29601 -0.65654,0.4439 -1.03544,0.3704 -0.40104,-0.0711 -0.73998,-0.38406 -0.86126,-0.77033 -0.13963,-0.41452 -0.0262,-0.90241 0.28794,-1.20819 0.20271,-0.20196 0.48539,-0.32227 0.77232,-0.31989 z m -6.68164,2.8711 c 0.40452,-0.005 0.79345,0.23933 0.97792,0.59708 0.2305,0.42382 0.17165,0.9879 -0.15384,1.34702 -0.25142,0.29132 -0.66218,0.43202 -1.03896,0.35303 -0.43801,-0.0829 -0.79342,-0.45601 -0.87747,-0.89039 -0.0839,-0.39388 0.0431,-0.82722 0.33728,-1.10451 0.20141,-0.19138 0.47666,-0.30389 0.75507,-0.30223 z"
       transform="translate(-236.3605,335.8446)"
       id="path14280"
       inkscape:path-effect="#path-effect52555"
       inkscape:original-d="m 530.5332,205.6113 a 1.9925,2.080405 0 0 0 -1.9199,1.5313 c -0.9429,0.2708 -1.9018,0.6927 -2.8145,1.3906 -0.2253,0.1726 -0.4371,0.3066 -0.6523,0.4512 a 1.9925,2.080405 0 0 0 -1.2949,-0.502 1.9925,2.080405 0 0 0 -1.9844,1.916 c -0.9221,0.1715 -1.7184,0.1531 -2.4043,0.1485 l -0.012,1.5 c 0.6891,0 1.6591,0.014 2.8164,-0.2246 a 1.9925,2.080405 0 0 0 1.584,0.8222 1.9925,2.080405 0 0 0 1.9922,-2.08 1.9925,2.080405 0 0 0 -0.016,-0.2364 c 0.2903,-0.1865 0.5815,-0.3741 0.8809,-0.6035 0.6674,-0.5104 1.36,-0.8509 2.0527,-1.0762 a 1.9925,2.080405 0 0 0 1.7715,1.125 1.9925,2.080405 0 0 0 1.9121,-1.5078 c 0.728,0.032 1.3977,0.09 1.9531,0.09 v -1.5 c -0.4631,0 -1.2081,-0.083 -2.0937,-0.1153 a 1.9925,2.080405 0 0 0 -1.7715,-1.1289 z m 0,1.1133 a 0.9260918,0.9669491 0 0 1 0.9258,0.9668 0.9260918,0.9669491 0 0 1 -0.9258,0.9668 0.9260918,0.9669491 0 0 1 -0.9277,-0.9668 0.9260918,0.9669491 0 0 1 0.9277,-0.9668 z m -6.6816,2.8711 a 0.9260918,0.9669491 0 0 1 0.9257,0.9688 0.9260918,0.9669491 0 0 1 -0.9257,0.9667 0.9260918,0.9669491 0 0 1 -0.9258,-0.9667 0.9260918,0.9669491 0 0 1 0.9258,-0.9688 z" />
  </g>
</svg>
