<?xml version="1.0" encoding="UTF-8" standalone="no"?>
<svg
   inkscape:version="1.2-dev (aa02a11, 2021-08-11)"
   sodipodi:docname="interactive_simplify-symbolic.svg"
   viewBox="0 0 16 16"
   height="16"
   width="16"
   id="svg1"
   version="1.1"
   xmlns:inkscape="http://www.inkscape.org/namespaces/inkscape"
   xmlns:sodipodi="http://sodipodi.sourceforge.net/DTD/sodipodi-0.dtd"
   xmlns="http://www.w3.org/2000/svg"
   xmlns:svg="http://www.w3.org/2000/svg"
   xmlns:rdf="http://www.w3.org/1999/02/22-rdf-syntax-ns#"
   xmlns:cc="http://creativecommons.org/ns#"
   xmlns:dc="http://purl.org/dc/elements/1.1/">
  <metadata
     id="metadata9480">
    <rdf:RDF>
      <cc:Work
         rdf:about="">
        <dc:format>image/svg+xml</dc:format>
        <dc:type
           rdf:resource="http://purl.org/dc/dcmitype/StillImage" />
      </cc:Work>
    </rdf:RDF>
  </metadata>
  <defs
     id="defs9478">
    <inkscape:path-effect
       effect="offset"
       id="path-effect63116"
       is_visible="true"
       lpeversion="1"
       linejoin_type="miter"
       unit="mm"
       offset="-0.024997715"
       miter_limit="4"
       attempt_force_join="false"
       update_on_knot_move="true" />
    <inkscape:path-effect
       effect="join_type"
       id="path-effect837"
       is_visible="true"
       lpeversion="1"
       linecap_type="butt"
       line_width="1"
       linejoin_type="extrp_arc"
       miter_limit="100"
       attempt_force_join="true" />
  </defs>
  <style
     id="s0">
.success { fill:#009909; }
.warning { fill:#FF1990; }
.warning { fill:#00AAFF; }
</style>
  <style
     id="s2">
@import '../../highlights.css';
</style>
  <sodipodi:namedview
     inkscape:document-rotation="0"
     inkscape:current-layer="interactive_simplify"
     inkscape:window-maximized="1"
     inkscape:window-y="-9"
     inkscape:window-x="-9"
     inkscape:window-height="1013"
     inkscape:window-width="1920"
     inkscape:cy="9.9804832"
     inkscape:cx="4.5117253"
     inkscape:zoom="21.942825"
     showgrid="false"
     id="namedview"
     guidetolerance="10"
     gridtolerance="10"
     objecttolerance="10"
     inkscape:snap-global="false"
     pagecolor="#f8f8f8"
     bordercolor="#c8c8c8"
     borderopacity="1"
     inkscape:pageshadow="0"
     inkscape:pageopacity="0"
     inkscape:pagecheckerboard="0">
    <inkscape:grid
       id="grid"
       type="xygrid"
       spacingx="0.66667"
       spacingy="0.66667" />
  </sodipodi:namedview>
  <g
     inkscape:label="00387"
     id="interactive_simplify"
     transform="matrix(1.017747,0,0,1.017747,-290.02614,-545.11537)">
    <path
       style="fill:#000000;fill-rule:nonzero;stroke:none;stroke-width:0.982562;stroke-linecap:butt;stroke-linejoin:miter;stroke-opacity:1"
       d="m 290.45491,537.79849 c -0.48145,0.014 -0.96106,0.20253 -1.30265,0.54615 -0.35441,0.34961 -0.53086,0.83684 -0.60931,1.31935 -0.11064,0.69562 -0.0604,1.40513 0.0251,2.10053 0.10116,0.81038 0.28702,1.60659 0.42321,2.41121 0.13483,0.78584 0.25979,1.57702 0.28077,2.37548 0.005,0.40115 -0.007,0.81236 -0.14045,1.19486 -0.0801,0.23388 -0.24346,0.4569 -0.48474,0.53993 -0.23121,0.0769 -0.49318,0.052 -0.71126,-0.0539 -0.25845,-0.13149 -0.42096,-0.39233 -0.52445,-0.65442 -0.18127,-0.47366 -0.23623,-0.98355 -0.27849,-1.4854 -0.0743,-1.04151 -0.0502,-2.08679 -0.0293,-3.12977 -0.26888,-0.007 -0.53776,-0.0143 -0.80664,-0.0215 -0.0227,1.12975 -0.0533,2.2631 0.0489,3.39008 0.0625,0.61314 0.15729,1.23724 0.42486,1.7986 0.17558,0.36929 0.46054,0.70136 0.84226,0.86491 0.33399,0.14542 0.70956,0.17402 1.06827,0.13018 0.38542,-0.0463 0.74976,-0.2584 0.97095,-0.57873 0.24933,-0.36365 0.35074,-0.80546 0.39793,-1.23797 0.0638,-0.61789 0.0203,-1.24085 -0.0461,-1.8566 -0.1121,-0.99833 -0.3175,-1.98248 -0.50302,-2.96884 -0.12581,-0.71515 -0.23045,-1.43945 -0.21096,-2.16742 0.0183,-0.4093 0.067,-0.83683 0.2851,-1.19358 0.15301,-0.25452 0.41783,-0.43615 0.71074,-0.48579 0.31248,-0.0651 0.66683,-0.02 0.91303,0.19641 0.26036,0.22682 0.35967,0.57782 0.39247,0.91024 0.0686,0.69779 -0.0112,1.39837 -0.0761,2.09323 -0.0895,0.89715 -0.17084,1.79779 -0.15735,2.70032 0.0176,0.53991 0.20282,1.09191 0.5936,1.47673 0.41698,0.41967 1.07038,0.60806 1.63921,0.42331 0.45151,-0.14089 0.8181,-0.53264 0.90943,-0.99893 0.0998,-0.48839 0.0397,-0.98927 0.0141,-1.48197 -0.015,-0.32216 -0.0362,-0.64969 0.0267,-0.96821 0.0305,-0.15256 0.112,-0.31331 0.26757,-0.36835 0.18168,-0.0692 0.40915,-0.0398 0.54154,0.11205 0.15522,0.17536 0.24293,0.39768 0.35209,0.60302 0.14582,0.27502 0.29945,0.55968 0.54688,0.75726 0.17024,0.13302 0.3832,0.20694 0.59681,0.22751 0.34784,0.032 0.67571,-0.11539 0.98477,-0.25506 0.39669,-0.18465 0.81117,-0.34498 1.248,-0.39982 0.10158,-0.0137 0.20377,-0.0227 0.30616,-0.0273 -0.005,-0.26562 -0.009,-0.53125 -0.0137,-0.79687 -0.5545,0.021 -1.10685,0.14289 -1.61011,0.37913 -0.22416,0.0961 -0.43526,0.23134 -0.67618,0.28284 -0.14405,0.0272 -0.32157,0.006 -0.40649,-0.12856 -0.14293,-0.20931 -0.23817,-0.44642 -0.36741,-0.66398 -0.19533,-0.34239 -0.45605,-0.67127 -0.82266,-0.83852 -0.32304,-0.14424 -0.70282,-0.12666 -1.02785,0.002 -0.27218,0.11028 -0.48318,0.33931 -0.59744,0.60656 -0.18397,0.43399 -0.18704,0.91712 -0.16856,1.38073 0.0129,0.40304 0.0608,0.80568 0.0407,1.20923 -0.0134,0.15163 -0.0292,0.33101 -0.16479,0.42696 -0.26539,0.19224 -0.64839,0.23923 -0.93711,0.0707 -0.22559,-0.13163 -0.3479,-0.38203 -0.40862,-0.62716 -0.0826,-0.34539 -0.0533,-0.70301 -0.048,-1.05454 0.0291,-0.93055 0.14681,-1.85504 0.22136,-2.78234 0.0372,-0.54 0.0583,-1.08606 -0.0192,-1.62359 -0.07,-0.46234 -0.262,-0.9241 -0.61703,-1.23959 -0.35335,-0.3176 -0.83728,-0.45768 -1.30672,-0.44072 z"
       sodipodi:nodetypes="cssssssssc"
       id="path63677" />
  </g>
</svg>
