<?xml version="1.0" encoding="UTF-8" standalone="no"?>
<svg
   version="1.1"
   id="svg1"
   width="16"
   height="16"
   viewBox="0 0 16 16"
   sodipodi:docname="mesh-gradient-symbolic.svg"
   inkscape:version="1.3-dev (fdfee2c, 2022-07-24)"
   xmlns:inkscape="http://www.inkscape.org/namespaces/inkscape"
   xmlns:sodipodi="http://sodipodi.sourceforge.net/DTD/sodipodi-0.dtd"
   xmlns="http://www.w3.org/2000/svg"
   xmlns:svg="http://www.w3.org/2000/svg"
   xmlns:rdf="http://www.w3.org/1999/02/22-rdf-syntax-ns#"
   xmlns:cc="http://creativecommons.org/ns#"
   xmlns:dc="http://purl.org/dc/elements/1.1/">
  <style
     id="s0">
   .success { fill: #009909; }
   .warning { fill: #FF1990; }
   .warning   { fill: #00AAFF; }
  </style>
  <style
     id="s2"> 
     @import '../../highlights.css'; 
  </style>
  <metadata
     id="metadata852">
    <rdf:RDF>
      <cc:Work
         rdf:about="">
        <dc:format>image/svg+xml</dc:format>
        <dc:type
           rdf:resource="http://purl.org/dc/dcmitype/StillImage" />
        <dc:title />
      </cc:Work>
    </rdf:RDF>
  </metadata>
  <defs
     id="defs850">
    <inkscape:path-effect
       effect="powerstroke"
       id="path-effect850"
       is_visible="true"
       lpeversion="1"
       offset_points="0.27384242,0.13027168 | 1,0.33500001 | 1.6894771,0.16671493"
       sort_points="true"
       interpolator_type="CentripetalCatmullRom"
       interpolator_beta="0.2"
       start_linecap_type="zerowidth"
       linejoin_type="round"
       miter_limit="4"
       scale_width="1"
       end_linecap_type="zerowidth" />
    <inkscape:path-effect
       effect="powerstroke"
       id="path-effect847"
       is_visible="true"
       lpeversion="1"
       offset_points="0.35093488,0.13230439 | 1,0.33500001 | 1.8206382,0.089933397"
       sort_points="true"
       interpolator_type="CentripetalCatmullRom"
       interpolator_beta="0.2"
       start_linecap_type="zerowidth"
       linejoin_type="round"
       miter_limit="4"
       scale_width="1"
       end_linecap_type="zerowidth" />
    <inkscape:path-effect
       effect="join_type"
       id="path-effect849"
       is_visible="true"
       linecap_type="round"
       line_width="0.67"
       linejoin_type="round"
       miter_limit="100"
       attempt_force_join="true" />
    <inkscape:path-effect
       effect="join_type"
       id="path-effect3215"
       is_visible="true"
       linecap_type="round"
       line_width="1"
       linejoin_type="round"
       miter_limit="100"
       attempt_force_join="true" />
    <inkscape:path-effect
       attempt_force_join="true"
       miter_limit="100"
       linejoin_type="round"
       line_width="0.67"
       linecap_type="round"
       is_visible="true"
       id="path-effect6778"
       effect="join_type" />
    <inkscape:path-effect
       attempt_force_join="true"
       miter_limit="100"
       linejoin_type="round"
       line_width="2"
       linecap_type="round"
       is_visible="true"
       id="path-effect6769"
       effect="join_type" />
  </defs>
  <sodipodi:namedview
     inkscape:snap-others="false"
     inkscape:snap-global="true"
     objecttolerance="10"
     gridtolerance="10"
     guidetolerance="10"
     id="namedview"
     showgrid="false"
     inkscape:zoom="38.165303"
     inkscape:cx="4.677023"
     inkscape:cy="7.1268922"
     inkscape:window-width="1920"
     inkscape:window-height="1013"
     inkscape:window-x="-9"
     inkscape:window-y="-9"
     inkscape:window-maximized="1"
     inkscape:current-layer="svg1"
     inkscape:document-rotation="0"
     pagecolor="#f8f8f8"
     bordercolor="#c8c8c8"
     borderopacity="1"
     inkscape:pageshadow="0"
     inkscape:pageopacity="0"
     inkscape:pagecheckerboard="0"
     inkscape:showpageshadow="0"
     inkscape:deskcolor="#f8f8f8">
    <inkscape:grid
       type="xygrid"
       id="grid"
       spacingx="0.66666667"
       spacingy="0.66667" />
  </sodipodi:namedview>
  <path
     id="rect2473-3-2-9-2"
     style="color:#000000;fill:#000000;stroke-width:0.971512;-inkscape-stroke:none"
     sodipodi:type="inkscape:offset"
     inkscape:radius="-0.12758116"
     inkscape:original="M 1.9003906 1.9003906 L 1.9003906 2.2851562 L 1.9003906 14.099609 L 14.099609 14.099609 L 14.099609 1.9003906 L 1.9003906 1.9003906 z M 2.671875 2.6699219 L 5.7832031 2.6699219 C 5.6222176 3.5974442 5.5126159 4.4721527 5.4394531 5.3085938 C 4.5388605 5.1478864 3.6363741 4.9739764 2.671875 4.8710938 L 2.671875 2.6699219 z M 6.5449219 2.6699219 L 10.085938 2.6699219 C 9.7925435 3.6789084 9.5530916 4.6824461 9.3925781 5.6777344 C 8.2471617 5.7233547 7.2048774 5.6009895 6.1796875 5.4335938 C 6.2545875 4.5620937 6.3714093 3.6467704 6.5449219 2.6699219 z M 10.867188 2.6699219 L 13.328125 2.6699219 L 13.328125 4.8808594 C 12.163625 5.2963325 11.124026 5.5226095 10.162109 5.6230469 C 10.327419 4.6531891 10.569453 3.6677312 10.867188 2.6699219 z M 2.671875 5.6269531 C 3.5879372 5.7301519 4.4761589 5.9041732 5.3828125 6.0644531 C 5.3095269 7.2533293 5.3119669 8.3621253 5.3652344 9.4160156 C 4.4891086 9.2594193 3.6093402 9.0952366 2.671875 8.9941406 L 2.671875 5.6269531 z M 13.328125 5.671875 L 13.328125 8.9902344 C 12.086188 9.43543 10.987244 9.6660145 9.9726562 9.7578125 C 9.8643313 8.6591781 9.898281 7.5318044 10.046875 6.3847656 C 11.048347 6.2954643 12.129474 6.0784422 13.328125 5.671875 z M 6.125 6.1894531 C 7.1214137 6.3482578 8.1560922 6.46358 9.2871094 6.4296875 C 9.1482047 7.5687778 9.1164324 8.693925 9.2226562 9.8007812 C 8.1221633 9.8314692 7.1132153 9.709705 6.1210938 9.546875 C 6.0618298 8.4897882 6.0542433 7.381319 6.125 6.1894531 z M 2.671875 9.7460938 C 3.598244 9.8517518 4.4957499 10.031565 5.4140625 10.193359 C 5.4937705 11.278398 5.6186295 12.309986 5.7558594 13.326172 L 2.671875 13.326172 L 2.671875 9.7460938 z M 13.328125 9.7851562 L 13.328125 13.326172 L 10.912109 13.326172 C 10.498764 12.406627 10.223689 11.462746 10.068359 10.498047 C 11.064354 10.406217 12.137482 10.190734 13.328125 9.7851562 z M 6.1738281 10.318359 C 7.1630935 10.473871 8.1908059 10.584588 9.3144531 10.546875 C 9.4603016 11.489802 9.7138899 12.417446 10.091797 13.326172 L 6.5117188 13.326172 C 6.3778029 12.341515 6.2553181 11.350124 6.1738281 10.318359 z "
     d="M 2.0273438,2.0273438 V 2.2851562 13.972656 H 13.972656 V 2.0273438 Z m 0.6445312,0.515625 h 3.1113281 a 0.12759392,0.12759392 0 0 1 0.125,0.1484374 C 5.7478603,3.6152258 5.6392781,4.4871981 5.5664062,5.3203125 A 0.12759392,0.12759392 0 0 1 5.4179688,5.4335938 C 4.516217,5.2726795 3.6159706,5.1002114 2.6582031,4.9980469 A 0.12759392,0.12759392 0 0 1 2.5449219,4.8710938 V 2.6699219 A 0.12759392,0.12759392 0 0 1 2.671875,2.5429688 Z m 3.8730469,0 h 3.5410161 a 0.12759392,0.12759392 0 0 1 0.123046,0.1621093 C 9.9167262,3.710157 9.6770625,4.7083589 9.5175781,5.6972656 A 0.12759392,0.12759392 0 0 1 9.3984375,5.8046875 C 8.2408811,5.8507913 7.187207,5.7266122 6.1582031,5.5585938 A 0.12759392,0.12759392 0 0 1 6.0527344,5.421875 C 6.1279509,4.546692 6.2457337,3.6290891 6.4199219,2.6484375 a 0.12759392,0.12759392 0 0 1 0.125,-0.1054687 z m 4.3222661,0 h 2.460937 a 0.12759392,0.12759392 0 0 1 0.126953,0.1269531 v 2.2109375 a 0.12759392,0.12759392 0 0 1 -0.08398,0.1210937 C 12.197768,5.4205752 11.14794,5.6484932 10.175781,5.75 A 0.12759392,0.12759392 0 0 1 10.037109,5.6015625 c 0.166371,-0.97608 0.408133,-1.9670393 0.707032,-2.96875 a 0.12759392,0.12759392 0 0 1 0.123047,-0.089844 z M 2.6855469,5.5 c 0.9228004,0.1039579 1.8136192,0.2794424 2.71875,0.4394531 A 0.12759392,0.12759392 0 0 1 5.5097656,6.0722656 C 5.4367904,7.2561062 5.4391378,8.3605754 5.4921875,9.4101562 A 0.12759392,0.12759392 0 0 1 5.34375,9.5410156 C 4.4669819,9.3843045 3.5894882,9.2215233 2.6582031,9.1210938 A 0.12759392,0.12759392 0 0 1 2.5449219,8.9941406 V 5.6269531 A 0.12759392,0.12759392 0 0 1 2.6855469,5.5 Z M 13.287109,5.5507812 A 0.12759392,0.12759392 0 0 1 13.455078,5.671875 V 8.9902344 A 0.12759392,0.12759392 0 0 1 13.371094,9.109375 C 12.119825,9.5579158 11.009824,9.7919849 9.984375,9.8847656 A 0.12759392,0.12759392 0 0 1 9.8457031,9.7695312 C 9.7362865,8.6598247 9.7702776,7.5242866 9.9199219,6.3691406 A 0.12759392,0.12759392 0 0 1 10.035156,6.2578125 c 0.991349,-0.088399 2.062323,-0.3035237 3.251953,-0.7070313 z M 6.1445312,6.0625 c 0.9923378,0.1581551 2.018644,0.2737976 3.1386719,0.2402344 a 0.12759392,0.12759392 0 0 1 0.1308594,0.1425781 c -0.1379657,1.1313902 -0.1696604,2.247486 -0.064453,3.34375 A 0.12759392,0.12759392 0 0 1 9.2265625,9.9277344 C 8.1144978,9.9587451 7.0953413,9.8352976 6.0996094,9.671875 A 0.12759392,0.12759392 0 0 1 5.9941406,9.5546875 c -0.059509,-1.061456 -0.06716,-2.1759711 0.00391,-3.3730469 A 0.12759392,0.12759392 0 0 1 6.1445312,6.0625 Z M 2.6855469,9.6191406 c 0.9333432,0.1064535 1.8336058,0.2877628 2.75,0.4492184 a 0.12759392,0.12759392 0 0 1 0.1054687,0.115235 c 0.079428,1.081223 0.204726,2.109991 0.3417969,3.125 A 0.12759392,0.12759392 0 0 1 5.7558594,13.453125 H 2.671875 A 0.12759392,0.12759392 0 0 1 2.5449219,13.326172 V 9.7460938 a 0.12759392,0.12759392 0 0 1 0.140625,-0.1269532 z m 10.6015621,0.044922 a 0.12759392,0.12759392 0 0 1 0.167969,0.1210937 v 3.5410158 a 0.12759392,0.12759392 0 0 1 -0.126953,0.126953 h -2.416016 a 0.12759392,0.12759392 0 0 1 -0.117187,-0.07422 C 10.37687,12.448889 10.100371,11.492721 9.9433594,10.517578 a 0.12759392,0.12759392 0 0 1 0.1132816,-0.146484 c 0.986168,-0.09092 2.048918,-0.304551 3.230468,-0.7070315 z M 6.1933594,10.191406 c 0.9850516,0.15485 2.0045134,0.265861 3.1171875,0.228516 a 0.12759392,0.12759392 0 0 1 0.1308593,0.107422 c 0.1443659,0.933341 0.3937214,1.851013 0.7675778,2.75 a 0.12759392,0.12759392 0 0 1 -0.117187,0.175781 H 6.5117188 A 0.12759392,0.12759392 0 0 1 6.3847656,13.34375 C 6.2507086,12.358055 6.12865,11.363498 6.046875,10.328125 a 0.12759392,0.12759392 0 0 1 0.1464844,-0.136719 z" />
</svg>
