<?xml version="1.0" encoding="UTF-8" standalone="no"?>
<svg
   xmlns:dc="http://purl.org/dc/elements/1.1/"
   xmlns:cc="http://creativecommons.org/ns#"
   xmlns:rdf="http://www.w3.org/1999/02/22-rdf-syntax-ns#"
   xmlns:svg="http://www.w3.org/2000/svg"
   xmlns="http://www.w3.org/2000/svg"
   xmlns:sodipodi="http://sodipodi.sourceforge.net/DTD/sodipodi-0.dtd"
   xmlns:inkscape="http://www.inkscape.org/namespaces/inkscape"
   inkscape:version="1.0.1 (3bc2e813f5, 2020-09-07)"
   sodipodi:docname="paint-pattern-symbolic.svg"
   viewBox="0 0 16 16"
   height="16"
   width="16"
   id="svg1"
   version="1.1">
  <metadata
     id="metadata10972">
    <rdf:RDF>
      <cc:Work
         rdf:about="">
        <dc:format>image/svg+xml</dc:format>
        <dc:type
           rdf:resource="http://purl.org/dc/dcmitype/StillImage" />
        <dc:title></dc:title>
      </cc:Work>
    </rdf:RDF>
  </metadata>
  <defs
     id="defs10970" />
  <style
     id="s0">
.success { fill:#009909; }
.warning { fill:#FF1990; }
.warning { fill:#00AAFF; }
</style>
  <style
     id="s2">
@import '../../highlights.css';
</style>
  <sodipodi:namedview
     inkscape:document-rotation="0"
     inkscape:current-layer="paint-pattern"
     inkscape:window-maximized="1"
     inkscape:window-y="-9"
     inkscape:window-x="-9"
     inkscape:window-height="1013"
     inkscape:window-width="1920"
     inkscape:cy="10.737021"
     inkscape:cx="25.723915"
     inkscape:zoom="20.982143"
     showgrid="true"
     id="namedview"
     guidetolerance="10"
     gridtolerance="10"
     objecttolerance="10">
    <inkscape:grid
       id="grid"
       type="xygrid" />
  </sodipodi:namedview>
  <g
     id="paint-pattern"
     inkscape:label="00305"
     transform="matrix(0.8,0,0,0.8,-944,-743.48976)">
    <path
       id="rect4541"
       d="m 1181.25,930.6122 v 3.75 l 1.25,1.25 3.75,-3.75 -0.4814,-0.48138 L 1185,930.6122 Z m 1.25,5 -1.25,1.25 v 5 l 1.25,1.25 3.75,-3.75 z m 3.75,3.75 3.75,3.75 3.75,-3.75 -3.75,-3.75 z m 3.75,-3.75 3.75,-3.75 -1.25,-1.25 h -5 l -1.25,1.25 z m 3.75,3.75 3.75,3.75 1.25,-1.25 v -5 l -1.25,-1.25 z m -3.75,3.75 -3.75,3.75 1.25,1.25 h 5 l 1.25,-1.25 z m 3.75,3.75 1.25,1.25 h 3.75 v -3.75 l -1.25,-1.25 z m -7.5,0 -3.75,-3.75 -1.25,1.25 v 3.75 h 3.75 z m 7.5,-15 3.75,3.75 1.25,-1.25 v -3.75 H 1195 Z"
       style="opacity:1"
       inkscape:connector-curvature="0"
       sodipodi:nodetypes="cccccccccccccccccccccccccccccccccccccccccccccccccccccc" />
    <path
       id="rect4381"
       transform="translate(0,512.3622)"
       d="m 1180,417 v 20 h 20 v -20 z"
       style="opacity:0;fill:none"
       inkscape:connector-curvature="0" />
  </g>
</svg>
