<?xml version="1.0" encoding="UTF-8" standalone="no"?>
<svg
   inkscape:version="1.1 (c4e8f9ed74, 2021-05-24)"
   sodipodi:docname="tool-spray-symbolic.svg"
   viewBox="0 0 16 16"
   height="16"
   width="16"
   id="svg1"
   version="1.1"
   xmlns:inkscape="http://www.inkscape.org/namespaces/inkscape"
   xmlns:sodipodi="http://sodipodi.sourceforge.net/DTD/sodipodi-0.dtd"
   xmlns:xlink="http://www.w3.org/1999/xlink"
   xmlns="http://www.w3.org/2000/svg"
   xmlns:svg="http://www.w3.org/2000/svg"
   xmlns:rdf="http://www.w3.org/1999/02/22-rdf-syntax-ns#"
   xmlns:cc="http://creativecommons.org/ns#"
   xmlns:dc="http://purl.org/dc/elements/1.1/">
  <style
     id="s0">
   .success { fill: #009909; }
   .warning { fill: #FF1990; }
   .warning   { fill: #00AAFF; }
  </style>
  <style
     id="s2"> 
     @import '../../highlights.css'; 
  </style>
  <metadata
     id="metadata2833">
    <rdf:RDF>
      <cc:Work
         rdf:about="">
        <dc:format>image/svg+xml</dc:format>
        <dc:type
           rdf:resource="http://purl.org/dc/dcmitype/StillImage" />
        <dc:title />
      </cc:Work>
    </rdf:RDF>
  </metadata>
  <defs
     id="defs2831" />
  <sodipodi:namedview
     inkscape:snap-global="true"
     inkscape:document-rotation="0"
     inkscape:current-layer="svg1"
     inkscape:window-maximized="1"
     inkscape:window-y="-9"
     inkscape:window-x="-9"
     inkscape:window-height="1013"
     inkscape:window-width="1920"
     inkscape:cy="12.671483"
     inkscape:cx="13.434633"
     inkscape:zoom="31.448569"
     showgrid="false"
     id="namedview"
     guidetolerance="10"
     gridtolerance="10"
     objecttolerance="10"
     inkscape:snap-bbox="true"
     inkscape:bbox-nodes="true"
     pagecolor="#f8f8f8"
     bordercolor="#c8c8c8"
     borderopacity="1"
     inkscape:pageshadow="0"
     inkscape:pageopacity="0"
     inkscape:pagecheckerboard="0">
    <inkscape:grid
       id="grid"
       type="xygrid"
       spacingx="0.66666667"
       spacingy="0.66667" />
  </sodipodi:namedview>
  <g
     transform="matrix(-0.54977468,0,0,-0.54977468,14.637003,5.1320723)"
     style="opacity:1;fill:#000000;fill-opacity:1;stroke-width:1.81893"
     id="g867"
     class="base">
    <path
       style="fill:#000000;fill-opacity:1;stroke-width:1.81892"
       id="path853"
       d="m 6,4.00002 a 0.66699998,0.66700002 0 0 1 -0.6669999,0.667 0.66699998,0.66700002 0 0 1 -0.667,-0.667 A 0.66699998,0.66700002 0 0 1 5.333,3.3330199 0.66699998,0.66700002 0 0 1 6,4.00002"
       inkscape:connector-curvature="0" />
    <path
       style="fill:#000000;fill-opacity:1;stroke-width:1.81893"
       id="path855"
       d="M 7.3333334,2.66668 A 0.66072562,0.66072562 0 0 1 6.6726078,3.3274055 0.66072562,0.66072562 0 0 1 6.0118822,2.66668 0.66072562,0.66072562 0 0 1 6.6726078,2.0059543 0.66072562,0.66072562 0 0 1 7.3333334,2.66668"
       inkscape:connector-curvature="0" />
    <path
       id="path863"
       d="m 8.6666667,3.6665001 a 0.33350008,0.33349999 0 0 1 -0.3335,0.3335 0.33350008,0.33349999 0 0 1 -0.3335,-0.3335 0.33350008,0.33349999 0 0 1 0.3335,-0.3335001 0.33350008,0.33349999 0 0 1 0.3335,0.3335001"
       inkscape:connector-curvature="0"
       style="fill:#000000;fill-opacity:1;stroke-width:1.81893" />
    <path
       id="path865"
       d="M 7.334,4.3335001 A 0.33350008,0.33349999 0 0 1 7.0005,4.6670001 0.33350008,0.33349999 0 0 1 6.667,4.3335001 0.33350008,0.33349999 0 0 1 7.0005,4 0.33350008,0.33349999 0 0 1 7.334,4.3335001"
       inkscape:connector-curvature="0"
       style="fill:#000000;fill-opacity:1;stroke-width:1.81893" />
    <path
       style="fill:#000000;fill-opacity:1;stroke-width:1.81892"
       id="path25098"
       d="m 6.4705354,5.9395421 a 0.66699998,0.66700002 0 0 1 -0.6669999,0.667 0.66699998,0.66700002 0 0 1 -0.667,-0.667 0.66699998,0.66700002 0 0 1 0.6669999,-0.6670001 0.66699998,0.66700002 0 0 1 0.667,0.6670001"
       inkscape:connector-curvature="0" />
    <path
       style="fill:#000000;fill-opacity:1;stroke-width:1.81892"
       id="path25100"
       d="m 4.0084753,5.3960313 a 0.66699998,0.66700002 0 0 1 -0.6669999,0.667 0.66699998,0.66700002 0 0 1 -0.667,-0.667 0.66699998,0.66700002 0 0 1 0.6669999,-0.6670001 0.66699998,0.66700002 0 0 1 0.667,0.6670001"
       inkscape:connector-curvature="0" />
    <path
       style="fill:#000000;fill-opacity:1;stroke-width:1.81892"
       id="path25102"
       d="m 4.0436494,2.6164456 a 0.66699998,0.66700002 0 0 1 -0.6669999,0.667 0.66699998,0.66700002 0 0 1 -0.667,-0.667 0.66699998,0.66700002 0 0 1 0.6669999,-0.6670001 0.66699998,0.66700002 0 0 1 0.667,0.6670001"
       inkscape:connector-curvature="0" />
    <path
       id="path25203"
       d="m 8.5429409,5.7698918 a 0.33350008,0.33349999 0 0 1 -0.3335,0.3335 0.33350008,0.33349999 0 0 1 -0.3335,-0.3335 0.33350008,0.33349999 0 0 1 0.3335,-0.3335001 0.33350008,0.33349999 0 0 1 0.3335,0.3335001"
       inkscape:connector-curvature="0"
       style="fill:#000000;fill-opacity:1;stroke-width:1.81893" />
    <use
       id="use26279"
       inkscape:spray-origin="#path25102"
       xlink:href="#path25102"
       transform="matrix(1.3156099,0.37714042,-0.37714042,1.3156099,1.7815445,-3.3122839)"
       style="stroke-width:1.32904"
       x="0"
       y="0"
       width="100%"
       height="100%" />
    <use
       id="use26281"
       inkscape:spray-origin="#path25102"
       xlink:href="#path25102"
       transform="matrix(0.4983615,0.20362169,-0.20362169,0.4983615,0.79777813,2.0668553)"
       style="stroke-width:3.37868"
       x="0"
       y="0"
       width="100%"
       height="100%" />
    <use
       id="use26283"
       inkscape:spray-origin="#path25102"
       xlink:href="#path25102"
       transform="matrix(1.3727385,0.32881275,-0.32881275,1.3727385,-3.6027448,0.56909231)"
       style="stroke-width:1.28859"
       x="0"
       y="0"
       width="100%"
       height="100%" />
    <use
       id="use26597"
       inkscape:spray-origin="#path25102"
       xlink:href="#path25102"
       transform="matrix(0.44680366,0.0670989,-0.0670989,0.44680366,-0.13875497,0.83306577)"
       style="stroke-width:4.02584"
       x="0"
       y="0"
       width="100%"
       height="100%" />
    <use
       id="use26599"
       inkscape:spray-origin="#path25102"
       xlink:href="#path25102"
       transform="matrix(0.49883334,-0.04290192,0.04290192,0.49883334,0.24795422,-0.14346766)"
       style="stroke-width:3.63296"
       x="0"
       y="0"
       width="100%"
       height="100%" />
    <use
       id="use26601"
       inkscape:spray-origin="#path25102"
       xlink:href="#path25102"
       transform="matrix(1.3182705,0.66364986,-0.66364986,1.3182705,0.26694589,-5.8893422)"
       style="stroke-width:1.23242"
       x="0"
       y="0"
       width="100%"
       height="100%" />
  </g>
  <path
     id="rect19655"
     style="fill:#000000;stroke-width:0.942461"
     transform="matrix(1.0992708,-0.1373997,0.15023048,1.005385,-2.2136102,0.9837338)"
     d="M 6.8710938,1.453125 C 6.7134001,1.4470709 6.5730144,1.561758 6.5507812,1.7207031 L 6.34375,3.2011719 5.5566406,3.0898438 C 5.3871953,3.0661419 5.2287473,3.1862571 5.2050781,3.3554688 L 4.9960938,4.8496094 C 4.7488159,4.8843108 4.5400421,5.0697889 4.5039062,5.328125 l -1.109375,7.933594 c -0.043618,0.311823 0.1761772,0.60478 0.4882813,0.648437 l 4.5175781,0.632813 c 0.3123071,0.04368 0.6047902,-0.178199 0.6484375,-0.490235 L 10.158203,6.1191406 c 0.0361,-0.2581119 -0.113932,-0.4927429 -0.3417968,-0.59375 L 10.025391,4.0292969 C 10.049092,3.8598523 9.9289778,3.7014036 9.7597656,3.6777344 L 8.9726562,3.5683594 9.1796875,2.0878906 C 9.2033769,1.9185357 9.0822402,1.7618059 8.9140625,1.7382812 L 6.9160156,1.4589844 6.9042969,1.4570312 v 0.00195 a 0.09860353,0.09860353 0 0 0 -0.019531,-0.00391 h -0.00391 c -0.00524,-7.746e-4 -0.00472,-0.00175 -0.00977,-0.00195 z m 0.1386718,0.5097656 1.4628906,0.2050782 c -0.088102,0.03531 -0.1665642,0.088431 -0.21875,0.15625 -0.085859,0.1115767 -0.1388403,0.2516473 -0.1601562,0.4042968 -0.021372,0.1525279 -0.00888,0.3010375 0.042969,0.4316406 0.053102,0.1337602 0.1666128,0.2731727 0.3457031,0.2988282 0.00595,8.125e-4 0.0079,-0.00402 0.013672,-0.00391 L 8.4941406,3.4707031 6.8300781,3.2382812 Z M 5.6640625,3.5957031 9.5175781,4.1347656 9.3398438,5.4121094 5.4863281,4.8730469 Z M 5.0839844,5.3203125 9.6015625,5.953125 c 0.055774,0.0078 0.083734,0.043595 0.076172,0.097656 l -1.109375,7.9335938 c -0.00763,0.05458 -0.045719,0.08371 -0.099609,0.07617 L 3.9511719,13.429688 C 3.8977836,13.42222 3.8674851,13.381848 3.875,13.328125 L 4.984375,5.3945312 c 0.00761,-0.054415 0.044523,-0.081924 0.099609,-0.074219 z" />
</svg>
