<?xml version="1.0" encoding="UTF-8" standalone="no"?>
<svg
   inkscape:version="1.1 (c4e8f9ed74, 2021-05-24)"
   sodipodi:docname="tool-tweak-symbolic.svg"
   viewBox="0 0 16 16"
   height="16"
   width="16"
   id="svg1"
   version="1.1"
   xmlns:inkscape="http://www.inkscape.org/namespaces/inkscape"
   xmlns:sodipodi="http://sodipodi.sourceforge.net/DTD/sodipodi-0.dtd"
   xmlns="http://www.w3.org/2000/svg"
   xmlns:svg="http://www.w3.org/2000/svg"
   xmlns:rdf="http://www.w3.org/1999/02/22-rdf-syntax-ns#"
   xmlns:cc="http://creativecommons.org/ns#"
   xmlns:dc="http://purl.org/dc/elements/1.1/">
  <style
     id="s0">
   .success { fill: #009909; }
   .warning { fill: #FF1990; }
   .warning   { fill: #00AAFF; }
  </style>
  <style
     id="s2"> 
     @import '../../highlights.css'; 
  </style>
  <title
     id="title3468">symbolic icons</title>
  <metadata
     id="metadata943">
    <rdf:RDF>
      <cc:Work
         rdf:about="">
        <dc:format>image/svg+xml</dc:format>
        <dc:type
           rdf:resource="http://purl.org/dc/dcmitype/StillImage" />
        <dc:title>symbolic icons</dc:title>
      </cc:Work>
    </rdf:RDF>
  </metadata>
  <defs
     id="defs941">
    <inkscape:path-effect
       center_point="-82.980537,-77.978962"
       end_point="-82.980537,-71.131387"
       start_point="-82.980537,-84.826537"
       effect="mirror_symmetry"
       id="path-effect1375"
       is_visible="true"
       lpeversion="1.1"
       mode="free"
       discard_orig_path="false"
       fuse_paths="false"
       oposite_fuse="false"
       split_items="true"
       split_open="false" />
    <inkscape:path-effect
       effect="mirror_symmetry"
       start_point="-83.050055,-84.858755"
       end_point="-83.050055,-71.241713"
       center_point="-83.050055,-78.050234"
       id="path-effect3771"
       is_visible="true"
       lpeversion="1.1"
       mode="free"
       discard_orig_path="false"
       fuse_paths="false"
       oposite_fuse="false"
       split_items="true"
       split_open="false" />
  </defs>
  <sodipodi:namedview
     inkscape:document-rotation="0"
     inkscape:current-layer="svg1"
     inkscape:window-maximized="1"
     inkscape:window-y="-9"
     inkscape:window-x="-9"
     inkscape:window-height="1013"
     inkscape:window-width="1920"
     inkscape:cy="6.3049598"
     inkscape:cx="9.3722375"
     inkscape:zoom="14.67099"
     showgrid="false"
     id="namedview"
     guidetolerance="10"
     gridtolerance="10"
     objecttolerance="10"
     inkscape:snap-global="false"
     pagecolor="#f8f8f8"
     bordercolor="#c8c8c8"
     borderopacity="1"
     inkscape:pageshadow="0"
     inkscape:pageopacity="0"
     inkscape:pagecheckerboard="0"
     showguides="true"
     inkscape:guide-bbox="true">
    <inkscape:grid
       empspacing="4"
       spacingy="0.5"
       spacingx="0.5"
       dotted="false"
       id="grid"
       type="xygrid" />
  </sodipodi:namedview>
  <path
     id="path12353"
     style="fill:#000000;stroke-width:0.811792"
     transform="matrix(1.0701488,0.96215876,-0.70498617,0.78411182,4.850193,-5.8431399)"
     d="m 6.9160156,1.6425781 c -0.02765,-2.031e-4 -0.053466,0.013811 -0.068359,0.037109 l -0.039062,0.060547 c -0.013856,0.021466 -0.027304,0.061773 -0.033203,0.125 -0.0059,0.063227 -0.00917,0.1639262 -0.011719,0.3476562 -0.0051,0.36746 -0.00587,1.0637254 -0.00586,2.4179688 l 0,2.7890625 c 2.15e-4,0.012977 0.00357,0.025709 0.00977,0.037109 l 0.34375,0.6464844 0.3339844,0.6269532 0,0.3632818 0,0.3105469 -0.076172,0.00977 c -0.1044285,0.011958 -0.203675,0.04405 -0.2851562,0.09375 -0.2349704,0.1433409 -0.3747198,0.461256 -0.3378906,0.7499991 0.00916,0.07183 0.039605,0.185089 0.080078,0.320313 0.040473,0.135224 0.090339,0.287971 0.1425781,0.427734 0.037594,0.100602 0.085117,0.251362 0.097656,0.316407 0.05236,0.271492 0.011864,0.832993 -0.087891,1.173828 -0.036984,0.126376 -0.045493,0.240077 -0.052734,0.595703 -0.00521,0.256369 -0.00183,0.489428 0.013672,0.595703 0.064344,0.441135 0.3373124,0.845524 0.6972657,1.011719 0.050664,0.02339 0.1012454,0.03994 0.1660156,0.04687 0.06477,0.0069 0.1435364,0.0068 0.2695312,0.0039 0.1436771,-0.0034 0.2210223,-0.0048 0.2890625,-0.01953 0.06804,-0.01472 0.1158768,-0.04351 0.1855469,-0.08594 0.2993023,-0.182289 0.5377052,-0.565013 0.59375,-0.941406 0.014875,-0.09988 0.019089,-0.31045 0.019531,-0.523437 2.214e-4,-0.106494 -9.32e-4,-0.212037 -0.00391,-0.298829 -0.00297,-0.08679 -0.00642,-0.150023 -0.015625,-0.195312 -0.01018,-0.05006 -0.04242,-0.204332 -0.072266,-0.34375 -0.037802,-0.176596 -0.054863,-0.33019 -0.0625,-0.548828 -0.013099,-0.37521 0.00795,-0.533782 0.109375,-0.798828 C 9.272093,10.584247 9.3331288,10.362715 9.3320312,10.167969 9.3297444,9.7632096 9.0845036,9.456632 8.7128906,9.4140625 l -0.076172,-0.00977 0,-0.3105425 V 8.7304688 L 8.96875,8.1035156 9.3125,7.4570312 c 0.0062,-0.0114 0.00956,-0.024132 0.00977,-0.037109 l 0,-2.7890628 C 9.322275,3.2766163 9.3215089,2.5803508 9.31641,2.2128906 9.31386,2.0291606 9.31059,1.928464 9.304691,1.8652344 9.298791,1.8020044 9.285358,1.7617056 9.271488,1.7402344 L 9.234375,1.6796875 C 9.2194823,1.6563898 9.1936662,1.6423754 9.166016,1.6425785 h -1.125 z m 0.3292332,0.6098057 h 1.5566406 l 0.01647,3.1108946 V 7.2480469 L 8.5273438,7.8066406 8.2460938,8.3398438 H 8.0546875 c -0.093113,0 -0.1536404,-0.00339 -0.1855469,-0.00781 -0.031906,-0.00442 -0.022338,-0.00723 -0.013672,0.00586 0.00351,0.0053 -0.011645,-0.019366 -0.029297,-0.050781 C 7.8085202,8.255694 7.7844955,8.2120425 7.7558594,8.1601562 7.6985871,8.0563837 7.6227936,7.9171438 7.5429688,7.7695312 L 7.2617188,7.25 l 0,-1.8867188 z m 0.7039702,6.679254 h 0.091797 0.091797 l 0,0.2363282 0,0.2363281 H 8.041016 l -0.091797,0 V 9.1679688 Z m 0.089844,1.0878902 c 0.3884465,0 0.58984,0.0026 0.6796875,0.01953 0.044924,0.0085 0.054357,0.01675 0.058594,0.02149 0.00424,0.0047 0.011717,0.01954 0.021484,0.05664 0.010573,0.04016 0.011273,0.08427 -0.013672,0.185546 -0.024945,0.101281 -0.076252,0.25415 -0.1640624,0.496094 -0.1018676,0.280685 -0.1447376,0.556031 -0.1445313,0.894531 1.878e-4,0.321938 0.022532,0.521635 0.1035156,0.882813 0.059639,0.265895 0.059331,0.270065 0.052734,0.689453 -0.00311,0.197701 -0.00522,0.309111 -0.011719,0.376953 -0.0065,0.06784 -0.015159,0.0896 -0.035156,0.136719 -0.061318,0.144478 -0.1973526,0.295114 -0.296875,0.341797 -0.038284,0.01795 -0.1316849,0.03615 -0.2207031,0.04101 -0.089018,0.0049 -0.1810079,-0.0042 -0.2109375,-0.01563 -0.093969,-0.03596 -0.1994666,-0.113717 -0.2636719,-0.214843 -0.036947,-0.05819 -0.062498,-0.0954 -0.078125,-0.123047 -0.015627,-0.02764 -0.023946,-0.04472 -0.03125,-0.08203 -0.014458,-0.07386 -0.02063,-0.225708 -0.041016,-0.560546 v -0.0039 c -7.14e-5,-0.0012 7.17e-5,-7.79e-4 0,-0.002 5.762e-4,-0.308532 0.041864,-0.526189 0.082031,-0.728515 0.040456,-0.203784 0.080633,-0.394503 0.074219,-0.634766 -0.010362,-0.388081 -0.024243,-0.673442 -0.1953125,-1.162109 -0.06363,-0.181831 -0.1018905,-0.296374 -0.1191407,-0.371094 -0.01725,-0.07472 -0.014628,-0.103412 -0.00586,-0.136719 0.01042,-0.03957 0.018307,-0.05644 0.023437,-0.0625 0.00513,-0.0061 0.014337,-0.01449 0.058594,-0.02344 0.088514,-0.01789 0.2891109,-0.02149 0.6777344,-0.02149 z"
     sodipodi:nodetypes="cccssccccccccccscccccccccccsccccccccccccccssccccccccccccssscsccccccccccccccccsscccscccccccccccsccscccc" />
</svg>
